<svg width="21" height="21" viewBox="0 0 21 21" fill="none" xmlns="http://www.w3.org/2000/svg">
<path d="M16.7339 4.96135H16.3934L13.5168 2.08475C13.2871 1.85497 12.9126 1.85497 12.6743 2.08475C12.4445 2.31454 12.4445 2.68901 12.6743 2.92731L14.7083 4.96135H6.43599L8.47003 2.92731C8.69982 2.69752 8.69982 2.32305 8.47003 2.08475C8.24025 1.85497 7.86578 1.85497 7.62748 2.08475L4.7594 4.96135H4.41897C3.65301 4.96135 2.06152 4.96135 2.06152 7.14007C2.06152 7.96561 2.23174 8.51029 2.58918 8.86773C2.79344 9.0805 3.04025 9.19114 3.30408 9.25071C3.55088 9.31029 3.81471 9.3188 4.07003 9.3188H17.0743C17.3381 9.3188 17.5849 9.30177 17.8232 9.25071C18.5381 9.0805 19.0828 8.56986 19.0828 7.14007C19.0828 4.96135 17.4913 4.96135 16.7339 4.96135Z" fill="#292D32"/>
<path d="M16.572 10.4252H4.50391C3.97625 10.4252 3.57625 10.8933 3.66135 11.4124L4.37625 15.7869C4.61455 17.2507 5.25284 18.9358 8.08689 18.9358H12.8614C15.7294 18.9358 16.2401 17.4975 16.5465 15.889L17.406 11.4379C17.5082 10.9103 17.1082 10.4252 16.572 10.4252ZM10.572 16.8081C8.5805 16.8081 6.95497 15.1826 6.95497 13.1911C6.95497 12.8422 7.24433 12.5528 7.59327 12.5528C7.9422 12.5528 8.23157 12.8422 8.23157 13.1911C8.23157 14.4847 9.27838 15.5316 10.572 15.5316C11.8656 15.5316 12.9124 14.4847 12.9124 13.1911C12.9124 12.8422 13.2018 12.5528 13.5507 12.5528C13.8997 12.5528 14.189 12.8422 14.189 13.1911C14.189 15.1826 12.5635 16.8081 10.572 16.8081Z" fill="#292D32"/>
</svg>
