<svg width="100" height="100" viewBox="0 0 100 100" fill="none" xmlns="http://www.w3.org/2000/svg">
<g id="coins 1" clip-path="url(#clip0_106_12744)">
<path id="Vector" opacity="0.5" d="M56.0547 77.207H46.1523C44.9219 77.207 43.9258 76.2109 43.9258 74.9609V68.5547C43.9258 67.3242 44.9219 66.3281 46.1523 66.3281H56.0547C54.8242 66.3281 53.8086 67.3242 53.8086 68.5547V74.9609C53.8281 76.1914 54.8242 77.207 56.0547 77.207Z" fill="white"/>
<path id="Vector_2" d="M73.9648 90.3128V96.719C73.9648 97.9495 72.9688 98.9456 71.7383 98.9456H21.4258C20.1953 98.9456 19.1992 97.9495 19.1992 96.719V90.3128C19.1992 89.0823 20.1953 88.0862 21.4258 88.0862H71.7188C72.9492 88.0862 73.9648 89.0823 73.9648 90.3128ZM65.4102 79.4339V85.8401C65.4102 87.0706 64.4141 88.0667 63.1836 88.0667H12.8711C11.6406 88.0667 10.6445 87.0706 10.6445 85.8401V79.4339C10.6445 78.2034 11.6406 77.2073 12.8711 77.2073H63.1641C64.3945 77.2073 65.4102 78.2034 65.4102 79.4339ZM56.6211 68.555V74.9612C56.6211 76.1917 55.625 77.1878 54.3945 77.1878H4.08203C2.85156 77.1878 1.85547 76.1917 1.85547 74.9612V68.555C1.85547 67.3245 2.85156 66.3284 4.08203 66.3284H54.375C55.6055 66.3284 56.6211 67.3245 56.6211 68.555ZM65.4102 57.6761V64.0823C65.4102 65.3128 64.4141 66.3089 63.1836 66.3089H12.8711C11.6406 66.3089 10.6445 65.3128 10.6445 64.0823V57.6761C10.6445 56.4456 11.6406 55.4495 12.8711 55.4495H63.1641C64.3945 55.4495 65.4102 56.4456 65.4102 57.6761ZM75.1953 46.7972V53.2034C75.1953 54.4339 74.1992 55.43 72.9688 55.43H22.6758C21.4453 55.43 20.4492 54.4339 20.4492 53.2034V46.7972C20.4492 45.5667 21.4453 44.5706 22.6758 44.5706H72.9688C74.1992 44.5511 75.1953 45.5667 75.1953 46.7972ZM66.7773 35.9182V42.3245C66.7773 43.555 65.7812 44.5511 64.5508 44.5511H14.2578C13.0273 44.5511 12.0312 43.555 12.0312 42.3245V35.9182C12.0312 34.6878 13.0273 33.6917 14.2578 33.6917H64.5508C65.7812 33.6722 66.7773 34.6878 66.7773 35.9182ZM75.1953 25.0393V31.4456C75.1953 32.6761 74.1992 33.6722 72.9688 33.6722H22.6758C21.4453 33.6722 20.4492 32.6761 20.4492 31.4456V25.0393C20.4492 23.8089 21.4453 22.8128 22.6758 22.8128H72.9688C74.1992 22.7932 75.1953 23.8089 75.1953 25.0393ZM82.5391 14.1604V20.5667C82.5391 21.7972 81.543 22.7932 80.3125 22.7932H30.0195C28.7891 22.7932 27.793 21.7972 27.793 20.5667V14.1604C27.793 12.93 28.7891 11.9339 30.0195 11.9339H80.3125C81.543 11.9143 82.5391 12.93 82.5391 14.1604ZM67.8516 3.28153V9.68778C67.8516 10.9182 66.8555 11.9143 65.625 11.9143H15.332C14.082 11.9143 13.0859 10.9182 13.0859 9.68778V3.28153C13.0859 2.05106 14.082 1.05496 15.3125 1.05496H65.625C66.8555 1.03543 67.8516 2.05106 67.8516 3.28153Z" fill="#FFCC52"/>
<path id="Vector_3" opacity="0.5" d="M31.3281 98.9648H21.4258C20.1953 98.9648 19.1992 97.9688 19.1992 96.7188V90.3125C19.1992 89.082 20.1953 88.0859 21.4258 88.0859H31.3281C30.0977 88.0859 29.082 89.082 29.082 90.3125V96.7188C29.082 97.9492 30.0977 98.9648 31.3281 98.9648ZM22.7734 88.0859H12.8711C11.6406 88.0859 10.625 87.0703 10.625 85.8398V79.4336C10.625 78.2031 11.6406 77.1875 12.8711 77.1875H22.7734C21.543 77.1875 20.5273 78.1836 20.5273 79.4336V85.8398C20.5273 87.0703 21.5234 88.0859 22.7734 88.0859ZM22.7734 66.3281H12.8711C11.6406 66.3281 10.625 65.332 10.625 64.082V57.6758C10.625 56.4453 11.6406 55.4297 12.8711 55.4297H22.6562C21.4648 55.4883 20.5273 56.4648 20.5273 57.6758V64.082C20.5273 65.332 21.5234 66.3281 22.7734 66.3281ZM32.5586 55.4297H22.6562C21.4258 55.4297 20.4297 54.4336 20.4297 53.2031V46.7773C20.4297 45.5469 21.4258 44.5508 22.6562 44.5508H32.5586C31.3281 44.5508 30.3125 45.5469 30.3125 46.7773V53.2031C30.332 54.4336 31.3281 55.4297 32.5586 55.4297Z" fill="white"/>
<path id="Vector_4" opacity="0.5" d="M24.1602 44.5703H14.2578C13.0273 44.5703 12.0117 43.5742 12.0117 42.3242V35.918C12.0117 34.6875 13.0078 33.6719 14.2578 33.6719H24.1602C22.9297 33.6719 21.9141 34.668 21.9141 35.918V42.3242C21.9141 43.5547 22.9102 44.5703 24.1602 44.5703Z" fill="white"/>
<path id="Vector_5" opacity="0.5" d="M32.5586 33.6719H22.6563C21.4258 33.6719 20.4297 32.6758 20.4297 31.4453V25.0391C20.4297 23.8086 21.4258 22.793 22.6563 22.793H32.5586C31.3281 22.793 30.3125 23.7891 30.3125 25.0391V31.4453C30.332 32.6758 31.3281 33.6719 32.5586 33.6719Z" fill="white"/>
<path id="Vector_6" opacity="0.5" d="M39.9023 22.793H30.0195C28.7891 22.793 27.7734 21.7969 27.7734 20.5469V14.1602C27.7734 12.9297 28.7695 11.9141 30.0195 11.9141H39.9023C38.6719 11.9141 37.6758 12.9297 37.6758 14.1602V20.5664C37.6758 21.7969 38.6719 22.793 39.9023 22.793ZM25.2148 11.9141H15.332C14.1016 11.9141 13.0859 10.918 13.0859 9.6875V3.28125C13.0859 2.05078 14.082 1.03516 15.3125 1.03516H25.2148C23.9844 1.03516 22.9688 2.03125 22.9688 3.28125V9.6875C22.9883 10.918 23.9844 11.9141 25.2148 11.9141Z" fill="white"/>
<path id="Vector_7" opacity="0.15" d="M73.9648 90.3125V96.7188C73.9648 97.9492 72.9688 98.9648 71.7188 98.9648H63.1445C64.375 98.9648 65.3906 97.9688 65.3906 96.7188V90.3125C65.3906 89.1016 64.4141 88.1055 63.1836 88.0859H71.7383C72.9492 88.0859 73.9648 89.082 73.9648 90.3125ZM65.4102 79.4336V85.8398C65.4102 87.0703 64.4141 88.0859 63.1641 88.0859H54.5898C55.8203 88.0859 56.8164 87.0703 56.8164 85.8398V79.4336C56.8164 78.2031 55.8203 77.1875 54.5898 77.1875H63.1641C64.4141 77.207 65.4102 78.2031 65.4102 79.4336Z" fill="black"/>
<path id="Vector_8" opacity="0.15" d="M56.6211 68.5547V74.9609C56.6211 76.1914 55.625 77.207 54.375 77.207H45.8008C47.0312 77.207 48.0469 76.2109 48.0469 74.9609V68.5547C48.0469 67.3242 47.0508 66.3281 45.8008 66.3281H54.375C55.6055 66.3281 56.6211 67.3242 56.6211 68.5547ZM65.4102 57.6758V64.082C65.4102 65.3125 64.4141 66.3281 63.1641 66.3281H54.5898C55.8203 66.3281 56.8164 65.332 56.8164 64.082V57.6758C56.8164 56.4453 55.8203 55.4297 54.5898 55.4297H63.1641C64.4141 55.4297 65.4102 56.4453 65.4102 57.6758ZM75.1953 46.7969V53.2227C75.1953 54.4531 74.1992 55.4492 72.9492 55.4492H64.375C65.6055 55.4492 66.6211 54.4531 66.6211 53.2227V46.7969C66.6211 45.5664 65.625 44.5703 64.375 44.5703H72.9492C74.1992 44.5703 75.1953 45.5664 75.1953 46.7969ZM66.7969 35.918V42.3242C66.7969 43.5547 65.7812 44.5703 64.5508 44.5703H55.9766C57.207 44.5703 58.2031 43.5742 58.2031 42.3242V35.918C58.2031 34.6875 57.207 33.6719 55.9766 33.6719H64.5508C65.7812 33.6719 66.7969 34.668 66.7969 35.918Z" fill="black"/>
<path id="Vector_9" opacity="0.15" d="M75.1953 25.0391V31.4453C75.1953 32.6758 74.1992 33.6719 72.9492 33.6719H64.375C65.6055 33.6719 66.6211 32.6758 66.6211 31.4453V25.0391C66.6211 23.8086 65.625 22.793 64.375 22.793H72.9492C74.1992 22.793 75.1953 23.8086 75.1953 25.0391Z" fill="black"/>
<path id="Vector_10" opacity="0.15" d="M82.5391 14.1602V20.5664C82.5391 21.7969 81.543 22.8125 80.3125 22.8125H71.7188C72.9492 22.8125 73.9648 21.8164 73.9648 20.5664V14.1602C73.9648 12.9297 72.9688 11.9141 71.7188 11.9141H80.3125C81.543 11.9141 82.5391 12.9297 82.5391 14.1602ZM67.8516 3.28125V9.6875C67.8516 10.918 66.8555 11.9141 65.6055 11.9141H57.0312C58.2617 11.9141 59.2578 10.918 59.2578 9.6875V3.28125C59.2578 2.05078 58.2617 1.03516 57.0312 1.03516H65.6055C66.8555 1.03516 67.8516 2.05078 67.8516 3.28125Z" fill="black"/>
<path id="Vector_11" d="M75.1172 98.9648C87.8348 98.9648 98.1445 88.6552 98.1445 75.9375C98.1445 63.2198 87.8348 52.9102 75.1172 52.9102C62.3995 52.9102 52.0898 63.2198 52.0898 75.9375C52.0898 88.6552 62.3995 98.9648 75.1172 98.9648Z" fill="#FFCC52"/>
<path id="Vector_12" opacity="0.5" d="M78.2227 98.7305C77.207 98.8672 76.1719 98.9453 75.1172 98.9453C62.4023 98.9453 52.0898 88.6328 52.0898 75.918C52.0898 63.2031 62.4023 52.8906 75.1172 52.8906C76.1719 52.8906 77.207 52.9688 78.2227 53.1055C66.9531 54.6094 58.2812 64.2578 58.2812 75.918C58.2812 87.5977 66.9531 97.2461 78.2227 98.7305Z" fill="white"/>
<path id="Vector_13" opacity="0.15" d="M98.1445 75.918C98.1445 88.6328 87.832 98.9453 75.1172 98.9453C73.8867 98.9453 72.6758 98.8477 71.4844 98.6523C82.4805 96.9141 90.8789 87.3828 90.8789 75.918C90.8789 64.4336 82.4805 54.9219 71.4844 53.1836C72.6562 52.9883 73.8867 52.8906 75.1172 52.8906C87.832 52.8906 98.1445 63.2031 98.1445 75.918Z" fill="black"/>
<path id="Vector_14" d="M75.1172 92.7734C84.4154 92.7734 91.9531 85.2357 91.9531 75.9375C91.9531 66.6393 84.4154 59.1016 75.1172 59.1016C65.819 59.1016 58.2812 66.6393 58.2812 75.9375C58.2812 85.2357 65.819 92.7734 75.1172 92.7734Z" fill="#FFCC52"/>
<path id="Vector_15" d="M76.25 51.8945V46.7969C76.25 44.9805 74.7852 43.5156 72.9688 43.5156H67.5977C67.7344 43.1445 67.832 42.7344 67.832 42.3242V35.918C67.832 35.4883 67.7539 35.0977 67.5977 34.7266H72.9688C74.7852 34.7266 76.25 33.2617 76.25 31.4453V25.0391C76.25 24.6094 76.1719 24.2188 76.0156 23.8477H80.3125C82.1289 23.8477 83.5938 22.3828 83.5938 20.5664V14.1602C83.5938 12.3438 82.1289 10.8789 80.3125 10.8789H68.6719C68.8086 10.5078 68.9062 10.0977 68.9062 9.6875V3.28125C68.8867 1.46484 67.4219 0 65.625 0H15.332C13.5156 0 12.0508 1.46484 12.0508 3.28125V9.6875C12.0508 11.5039 13.5156 12.9688 15.332 12.9688H26.9727C26.8359 13.3398 26.7383 13.75 26.7383 14.1602V20.5664C26.7383 20.9961 26.8164 21.3867 26.9727 21.7578H22.6758C20.8594 21.7578 19.3945 23.2227 19.3945 25.0391V31.4453C19.3945 31.875 19.4727 32.2656 19.6289 32.6367H14.2578C12.4414 32.6367 10.9766 34.1016 10.9766 35.918V42.3242C10.9766 44.1406 12.4414 45.6055 14.2578 45.6055H19.6289C19.4922 45.9766 19.3945 46.3867 19.3945 46.7969V53.2031C19.3945 53.6328 19.4727 54.0234 19.6289 54.3945H12.8711C11.0547 54.3945 9.58984 55.8594 9.58984 57.6758V64.082C9.58984 64.5117 9.66797 64.9023 9.82422 65.2734H4.08203C2.26562 65.2734 0.800781 66.7383 0.800781 68.5547V74.9609C0.800781 76.7773 2.26562 78.2422 4.08203 78.2422H9.82422C9.6875 78.6133 9.58984 79.0234 9.58984 79.4336V85.8398C9.58984 87.6562 11.0547 89.1211 12.8711 89.1211H18.3789C18.2422 89.4922 18.1445 89.9023 18.1445 90.3125V96.7188C18.1445 98.5352 19.6094 100 21.4258 100H71.7188C72.0312 100 72.3047 99.9414 72.5977 99.8633C73.4375 99.9414 74.2773 100 75.1172 100C88.3984 100 99.1797 89.1992 99.1797 75.9375C99.1992 63.0273 89.0039 52.4805 76.25 51.8945ZM72.9688 45.6055C73.6328 45.6055 74.1602 46.1328 74.1602 46.7969V51.875C70.6641 52.0117 67.3438 52.9102 64.375 54.3945H22.6758C22.0117 54.3945 21.4844 53.8672 21.4844 53.2031V46.7969C21.4844 46.1328 22.0117 45.6055 22.6758 45.6055H72.9688ZM80.3125 12.9688C80.9766 12.9688 81.5039 13.4961 81.5039 14.1602V20.5664C81.5039 21.2305 80.9766 21.7578 80.3125 21.7578H30.0195C29.3555 21.7578 28.8281 21.2305 28.8281 20.5664V14.1602C28.8281 13.4961 29.3555 12.9688 30.0195 12.9688H80.3125ZM15.332 10.8789C14.668 10.8789 14.1406 10.3516 14.1406 9.6875V3.28125C14.1406 2.61719 14.668 2.08984 15.332 2.08984H65.625C66.2891 2.08984 66.8164 2.61719 66.8164 3.28125V9.6875C66.8164 10.3516 66.2891 10.8789 65.625 10.8789H15.332ZM21.4844 25.0391C21.4844 24.375 22.0117 23.8477 22.6758 23.8477H72.9688C73.6328 23.8477 74.1602 24.375 74.1602 25.0391V31.4453C74.1602 32.1094 73.6328 32.6367 72.9688 32.6367H22.6758C22.0117 32.6367 21.4844 32.1094 21.4844 31.4453V25.0391ZM14.2578 43.5156C13.5938 43.5156 13.0664 42.9883 13.0664 42.3242V35.918C13.0664 35.2539 13.5938 34.7266 14.2578 34.7266H64.5508C65.2148 34.7266 65.7422 35.2539 65.7422 35.918V42.3242C65.7422 42.9883 65.2148 43.5156 64.5508 43.5156H14.2578ZM11.6797 57.6758C11.6797 57.0117 12.207 56.4844 12.8711 56.4844H60.957C57.832 58.7695 55.2734 61.7773 53.5352 65.2734H12.8711C12.207 65.2734 11.6797 64.7461 11.6797 64.082V57.6758ZM4.08203 76.1523C3.41797 76.1523 2.89063 75.625 2.89063 74.9609V68.5547C2.89063 67.8906 3.41797 67.3633 4.08203 67.3633H52.6172C51.6016 70.0195 51.0352 72.9102 51.0352 75.9375C51.0352 76.0156 51.0352 76.0938 51.0352 76.1719H4.08203V76.1523ZM12.8711 87.0312C12.207 87.0312 11.6797 86.5039 11.6797 85.8398V79.4336C11.6797 78.7695 12.207 78.2422 12.8711 78.2422H51.1523C51.4453 81.3867 52.3633 84.3555 53.7695 87.0312H12.8711ZM21.4258 97.9102C20.7617 97.9102 20.2344 97.3828 20.2344 96.7188V90.3125C20.2344 89.6484 20.7617 89.1211 21.4258 89.1211H55C57.5195 92.9492 61.1133 96.0352 65.3516 97.9102H21.4258ZM75.1172 97.9102C62.9883 97.9102 53.125 88.0469 53.125 75.918C53.125 63.7891 62.9883 53.9258 75.1172 53.9258C87.2461 53.9258 97.1094 63.7891 97.1094 75.918C97.1094 88.0469 87.2461 97.9102 75.1172 97.9102Z" fill="black"/>
<path id="Vector_16" d="M75.1172 58.0469C65.2539 58.0469 57.2461 66.0742 57.2461 75.918C57.2461 85.7617 65.2734 93.7891 75.1172 93.7891C84.9609 93.7891 92.9883 85.7617 92.9883 75.918C92.9883 66.0742 84.9805 58.0469 75.1172 58.0469ZM75.1172 91.7188C66.4062 91.7188 59.3164 84.6289 59.3164 75.918C59.3164 67.207 66.4062 60.1172 75.1172 60.1172C83.8281 60.1172 90.918 67.207 90.918 75.918C90.918 84.6289 83.8281 91.7188 75.1172 91.7188Z" fill="black"/>
</g>
<defs>
<clipPath id="clip0_106_12744">
<rect width="100" height="100" fill="white"/>
</clipPath>
</defs>
</svg>
