<svg width="170" height="170" viewBox="0 0 170 170" fill="none" xmlns="http://www.w3.org/2000/svg">
<circle cx="85" cy="85" r="85" fill="#F8F8F8"/>
<g clip-path="url(#clip0_704_3359)">
<path opacity="0.5" d="M90.2306 107.112H82.3274C81.3453 107.112 80.5503 106.317 80.5503 105.32V100.207C80.5503 99.2247 81.3453 98.4297 82.3274 98.4297H90.2306C89.2486 98.4297 88.438 99.2247 88.438 100.207V105.32C88.4536 106.302 89.2486 107.112 90.2306 107.112Z" fill="white"/>
<path d="M104.525 117.571V122.684C104.525 123.666 103.73 124.461 102.748 124.461H62.5926C61.6106 124.461 60.8156 123.666 60.8156 122.684V117.571C60.8156 116.589 61.6106 115.794 62.5926 115.794H102.733C103.715 115.794 104.525 116.589 104.525 117.571ZM97.6975 108.888V114.001C97.6975 114.983 96.9025 115.778 95.9205 115.778H55.765C54.7829 115.778 53.9879 114.983 53.9879 114.001V108.888C53.9879 107.906 54.7829 107.111 55.765 107.111H95.9049C96.8869 107.111 97.6975 107.906 97.6975 108.888ZM90.6828 100.205V105.318C90.6828 106.301 89.8878 107.096 88.9057 107.096H48.7502C47.7681 107.096 46.9731 106.301 46.9731 105.318V100.205C46.9731 99.2234 47.7681 98.4284 48.7502 98.4284H88.8901C89.8722 98.4284 90.6828 99.2234 90.6828 100.205ZM97.6975 91.5228V96.6358C97.6975 97.6178 96.9025 98.4128 95.9205 98.4128H55.765C54.7829 98.4128 53.9879 97.6178 53.9879 96.6358V91.5228C53.9879 90.5407 54.7829 89.7457 55.765 89.7457H95.9049C96.8869 89.7457 97.6975 90.5407 97.6975 91.5228ZM105.507 82.8401V87.9531C105.507 88.9351 104.712 89.7301 103.73 89.7301H63.5903C62.6082 89.7301 61.8132 88.9351 61.8132 87.9531V82.8401C61.8132 81.858 62.6082 81.063 63.5903 81.063H103.73C104.712 81.0474 105.507 81.858 105.507 82.8401ZM98.7887 74.1574V79.2704C98.7887 80.2524 97.9937 81.0474 97.0117 81.0474H56.8717C55.8897 81.0474 55.0947 80.2524 55.0947 79.2704V74.1574C55.0947 73.1753 55.8897 72.3803 56.8717 72.3803H97.0117C97.9937 72.3648 98.7887 73.1753 98.7887 74.1574ZM105.507 65.4747V70.5877C105.507 71.5697 104.712 72.3647 103.73 72.3647H63.5903C62.6082 72.3647 61.8132 71.5697 61.8132 70.5877V65.4747C61.8132 64.4926 62.6082 63.6976 63.5903 63.6976H103.73C104.712 63.6821 105.507 64.4926 105.507 65.4747ZM111.368 56.792V61.905C111.368 62.8871 110.573 63.6821 109.591 63.6821H69.4515C68.4694 63.6821 67.6744 62.8871 67.6744 61.905V56.792C67.6744 55.81 68.4694 55.0149 69.4515 55.0149H109.591C110.573 54.9994 111.368 55.81 111.368 56.792ZM99.6461 48.1093V53.2223C99.6461 54.2044 98.8511 54.9994 97.869 54.9994H57.7291C56.7314 54.9994 55.9364 54.2044 55.9364 53.2223V48.1093C55.9364 47.1273 56.7314 46.3323 57.7135 46.3323H97.869C98.8511 46.3167 99.6461 47.1273 99.6461 48.1093Z" fill="#FFCC52"/>
<path opacity="0.5" d="M70.4958 124.48H62.5925C61.6104 124.48 60.8154 123.685 60.8154 122.687V117.574C60.8154 116.592 61.6104 115.797 62.5925 115.797H70.4958C69.5137 115.797 68.7031 116.592 68.7031 117.574V122.687C68.7031 123.669 69.5137 124.48 70.4958 124.48ZM63.6681 115.797H55.7648C54.7828 115.797 53.9722 114.987 53.9722 114.004V108.892C53.9722 107.909 54.7828 107.099 55.7648 107.099H63.6681C62.686 107.099 61.8754 107.894 61.8754 108.892V114.004C61.8754 114.987 62.6705 115.797 63.6681 115.797ZM63.6681 98.4318H55.7648C54.7828 98.4318 53.9722 97.6368 53.9722 96.6391V91.5261C53.9722 90.5441 54.7828 89.7335 55.7648 89.7335H63.5746C62.6237 89.7802 61.8754 90.5597 61.8754 91.5261V96.6391C61.8754 97.6368 62.6705 98.4318 63.6681 98.4318ZM71.4779 89.7335H63.5746C62.5925 89.7335 61.7975 88.9385 61.7975 87.9564V82.8278C61.7975 81.8458 62.5925 81.0508 63.5746 81.0508H71.4779C70.4958 81.0508 69.6852 81.8458 69.6852 82.8278V87.9564C69.7008 88.9385 70.4958 89.7335 71.4779 89.7335Z" fill="white"/>
<path opacity="0.5" d="M64.775 81.0655H56.8718C55.8897 81.0655 55.0791 80.2705 55.0791 79.2728V74.1598C55.0791 73.1778 55.8741 72.3672 56.8718 72.3672H64.775C63.793 72.3672 62.9824 73.1622 62.9824 74.1598V79.2728C62.9824 80.2549 63.7774 81.0655 64.775 81.0655Z" fill="white"/>
<path opacity="0.5" d="M71.4777 72.3663H63.5744C62.5924 72.3663 61.7974 71.5713 61.7974 70.5892V65.4763C61.7974 64.4942 62.5924 63.6836 63.5744 63.6836H71.4777C70.4956 63.6836 69.6851 64.4786 69.6851 65.4763V70.5892C69.7006 71.5713 70.4956 72.3663 71.4777 72.3663Z" fill="white"/>
<path opacity="0.5" d="M77.3393 63.6857H69.4516C68.4695 63.6857 67.6589 62.8907 67.6589 61.893V56.7957C67.6589 55.8136 68.4539 55.003 69.4516 55.003H77.3393C76.3572 55.003 75.5622 55.8136 75.5622 56.7957V61.9086C75.5622 62.8907 76.3572 63.6857 77.3393 63.6857ZM65.6169 55.003H57.7292C56.7471 55.003 55.9365 54.208 55.9365 53.2259V48.113C55.9365 47.1309 56.7315 46.3203 57.7136 46.3203H65.6169C64.6348 46.3203 63.8242 47.1153 63.8242 48.113V53.2259C63.8398 54.208 64.6348 55.003 65.6169 55.003Z" fill="white"/>
<path opacity="0.15" d="M104.525 117.573V122.686C104.525 123.668 103.73 124.479 102.732 124.479H95.8892C96.8713 124.479 97.6819 123.684 97.6819 122.686V117.573C97.6819 116.607 96.9024 115.812 95.9204 115.796H102.748C103.715 115.796 104.525 116.591 104.525 117.573ZM97.6975 108.89V114.003C97.6975 114.985 96.9024 115.796 95.9048 115.796H89.0615C90.0436 115.796 90.8386 114.985 90.8386 114.003V108.89C90.8386 107.908 90.0436 107.098 89.0615 107.098H95.9048C96.9024 107.113 97.6975 107.908 97.6975 108.89Z" fill="black"/>
<path opacity="0.15" d="M90.6828 100.208V105.321C90.6828 106.303 89.8878 107.114 88.8901 107.114H82.0469C83.0289 107.114 83.8395 106.319 83.8395 105.321V100.208C83.8395 99.2259 83.0445 98.4309 82.0469 98.4309H88.8901C89.8722 98.4309 90.6828 99.2259 90.6828 100.208ZM97.6976 91.5252V96.6382C97.6976 97.6203 96.9025 98.4309 95.9049 98.4309H89.0616C90.0437 98.4309 90.8387 97.6359 90.8387 96.6382V91.5252C90.8387 90.5432 90.0437 89.7326 89.0616 89.7326H95.9049C96.9025 89.7326 97.6976 90.5432 97.6976 91.5252ZM105.507 82.8425V87.9711C105.507 88.9532 104.712 89.7482 103.715 89.7482H96.8714C97.8534 89.7482 98.664 88.9532 98.664 87.9711V82.8425C98.664 81.8605 97.869 81.0655 96.8714 81.0655H103.715C104.712 81.0655 105.507 81.8605 105.507 82.8425ZM98.8043 74.1598V79.2728C98.8043 80.2549 97.9937 81.0655 97.0117 81.0655H90.1684C91.1505 81.0655 91.9455 80.2705 91.9455 79.2728V74.1598C91.9455 73.1778 91.1505 72.3672 90.1684 72.3672H97.0117C97.9937 72.3672 98.8043 73.1622 98.8043 74.1598Z" fill="black"/>
<path opacity="0.15" d="M105.507 65.4763V70.5892C105.507 71.5713 104.712 72.3663 103.714 72.3663H96.8711C97.8532 72.3663 98.6638 71.5713 98.6638 70.5892V65.4763C98.6638 64.4942 97.8687 63.6836 96.8711 63.6836H103.714C104.712 63.6836 105.507 64.4942 105.507 65.4763Z" fill="black"/>
<path opacity="0.15" d="M111.369 56.7957V61.9086C111.369 62.8907 110.574 63.7013 109.592 63.7013H102.733C103.715 63.7013 104.525 62.9063 104.525 61.9086V56.7957C104.525 55.8136 103.73 55.003 102.733 55.003H109.592C110.574 55.003 111.369 55.8136 111.369 56.7957ZM99.6462 48.113V53.2259C99.6462 54.208 98.8512 55.003 97.8535 55.003H91.0103C91.9923 55.003 92.7873 54.208 92.7873 53.2259V48.113C92.7873 47.1309 91.9923 46.3203 91.0103 46.3203H97.8535C98.8512 46.3203 99.6462 47.1309 99.6462 48.113Z" fill="black"/>
<path d="M105.445 124.48C115.595 124.48 123.824 116.252 123.824 106.101C123.824 95.951 115.595 87.7227 105.445 87.7227C95.2948 87.7227 87.0664 95.951 87.0664 106.101C87.0664 116.252 95.2948 124.48 105.445 124.48Z" fill="#FFCC52"/>
<path opacity="0.5" d="M107.924 124.293C107.113 124.402 106.287 124.464 105.445 124.464C95.297 124.464 87.0664 116.234 87.0664 106.086C87.0664 95.9377 95.297 87.707 105.445 87.707C106.287 87.707 107.113 87.7694 107.924 87.8785C98.9291 89.0788 92.0079 96.7794 92.0079 106.086C92.0079 115.407 98.9291 123.108 107.924 124.293Z" fill="white"/>
<path opacity="0.15" d="M123.823 106.086C123.823 116.234 115.593 124.464 105.445 124.464C104.463 124.464 103.496 124.386 102.545 124.23C111.322 122.843 118.025 115.236 118.025 106.086C118.025 96.9197 111.322 89.3282 102.545 87.9409C103.481 87.785 104.463 87.707 105.445 87.707C115.593 87.707 123.823 95.9377 123.823 106.086Z" fill="black"/>
<path d="M105.445 119.538C112.866 119.538 118.882 113.522 118.882 106.101C118.882 98.6801 112.866 92.6641 105.445 92.6641C98.0238 92.6641 92.0078 98.6801 92.0078 106.101C92.0078 113.522 98.0238 119.538 105.445 119.538Z" fill="#FFCC52"/>
<path d="M106.349 86.9104V82.8418C106.349 81.3921 105.18 80.223 103.73 80.223H99.4434C99.5525 79.9268 99.6305 79.5994 99.6305 79.2721V74.1591C99.6305 73.8162 99.5681 73.5044 99.4434 73.2082H103.73C105.18 73.2082 106.349 72.0391 106.349 70.5894V65.4764C106.349 65.1335 106.287 64.8217 106.162 64.5255H109.591C111.041 64.5255 112.21 63.3564 112.21 61.9067V56.7937C112.21 55.344 111.041 54.1749 109.591 54.1749H100.301C100.41 53.8787 100.488 53.5513 100.488 53.224V48.111C100.472 46.6613 99.3031 45.4922 97.869 45.4922H57.7291C56.2793 45.4922 55.1102 46.6613 55.1102 48.111V53.224C55.1102 54.6737 56.2793 55.8428 57.7291 55.8428H67.0197C66.9106 56.139 66.8326 56.4664 66.8326 56.7937V61.9067C66.8326 62.2496 66.895 62.5614 67.0197 62.8576H63.5903C62.1406 62.8576 60.9714 64.0267 60.9714 65.4764V70.5894C60.9714 70.9323 61.0338 71.2441 61.1585 71.5403H56.8717C55.422 71.5403 54.2529 72.7094 54.2529 74.1591V79.2721C54.2529 80.7218 55.422 81.8909 56.8717 81.8909H61.1585C61.0494 82.1871 60.9714 82.5145 60.9714 82.8418V87.9548C60.9714 88.2977 61.0338 88.6095 61.1585 88.9057H55.7649C54.3152 88.9057 53.1461 90.0748 53.1461 91.5245V96.6375C53.1461 96.9804 53.2084 97.2922 53.3332 97.5884H48.7502C47.3005 97.5884 46.1313 98.7575 46.1313 100.207V105.32C46.1313 106.77 47.3005 107.939 48.7502 107.939H53.3332C53.224 108.235 53.1461 108.563 53.1461 108.89V114.003C53.1461 115.453 54.3152 116.622 55.7649 116.622H60.1608C60.0517 116.918 59.9738 117.245 59.9738 117.573V122.686C59.9738 124.135 61.1429 125.304 62.5926 125.304H102.733C102.982 125.304 103.2 125.258 103.434 125.195C104.104 125.258 104.775 125.304 105.445 125.304C116.045 125.304 124.65 116.684 124.65 106.1C124.665 95.7957 116.528 87.378 106.349 86.9104ZM103.73 81.8909C104.26 81.8909 104.681 82.3118 104.681 82.8418V86.8948C101.891 87.0039 99.2408 87.721 96.8713 88.9057H63.5903C63.0603 88.9057 62.6394 88.4848 62.6394 87.9548V82.8418C62.6394 82.3118 63.0603 81.8909 63.5903 81.8909H103.73ZM109.591 55.8428C110.121 55.8428 110.542 56.2637 110.542 56.7937V61.9067C110.542 62.4367 110.121 62.8576 109.591 62.8576H69.4515C68.9215 62.8576 68.5006 62.4367 68.5006 61.9067V56.7937C68.5006 56.2637 68.9215 55.8428 69.4515 55.8428H109.591ZM57.7291 54.1749C57.1991 54.1749 56.7782 53.754 56.7782 53.224V48.111C56.7782 47.581 57.1991 47.1601 57.7291 47.1601H97.869C98.399 47.1601 98.8199 47.581 98.8199 48.111V53.224C98.8199 53.754 98.399 54.1749 97.869 54.1749H57.7291ZM62.6394 65.4764C62.6394 64.9464 63.0603 64.5255 63.5903 64.5255H103.73C104.26 64.5255 104.681 64.9464 104.681 65.4764V70.5894C104.681 71.1194 104.26 71.5403 103.73 71.5403H63.5903C63.0603 71.5403 62.6394 71.1194 62.6394 70.5894V65.4764ZM56.8717 80.223C56.3417 80.223 55.9208 79.8021 55.9208 79.2721V74.1591C55.9208 73.6291 56.3417 73.2082 56.8717 73.2082H97.0116C97.5416 73.2082 97.9625 73.6291 97.9625 74.1591V79.2721C97.9625 79.8021 97.5416 80.223 97.0116 80.223H56.8717ZM54.814 91.5245C54.814 90.9945 55.2349 90.5736 55.7649 90.5736H94.1434C91.6493 92.3974 89.6072 94.7981 88.2198 97.5884H55.7649C55.2349 97.5884 54.814 97.1675 54.814 96.6375V91.5245ZM48.7502 106.271C48.2202 106.271 47.7993 105.85 47.7993 105.32V100.207C47.7993 99.6772 48.2202 99.2563 48.7502 99.2563H87.4872C86.6766 101.376 86.2245 103.683 86.2245 106.1C86.2245 106.162 86.2245 106.224 86.2245 106.287H48.7502V106.271ZM55.7649 114.954C55.2349 114.954 54.814 114.533 54.814 114.003V108.89C54.814 108.36 55.2349 107.939 55.7649 107.939H86.318C86.5519 110.449 87.2845 112.818 88.4069 114.954H55.7649ZM62.5926 123.636C62.0626 123.636 61.6417 123.216 61.6417 122.686V117.573C61.6417 117.043 62.0626 116.622 62.5926 116.622H89.3889C91.3998 119.677 94.2681 122.14 97.6508 123.636H62.5926ZM105.445 123.636C95.7646 123.636 87.8925 115.764 87.8925 106.084C87.8925 96.4036 95.7646 88.5315 105.445 88.5315C115.125 88.5315 122.997 96.4036 122.997 106.084C122.997 115.764 115.125 123.636 105.445 123.636Z" fill="black"/>
<path d="M105.445 91.8203C97.5729 91.8203 91.1816 98.2271 91.1816 106.084C91.1816 113.94 97.5884 120.347 105.445 120.347C113.301 120.347 119.708 113.94 119.708 106.084C119.708 98.2271 113.317 91.8203 105.445 91.8203ZM105.445 118.695C98.4926 118.695 92.834 113.036 92.834 106.084C92.834 99.1312 98.4926 93.4727 105.445 93.4727C112.397 93.4727 118.056 99.1312 118.056 106.084C118.056 113.036 112.397 118.695 105.445 118.695Z" fill="black"/>
</g>
<defs>
<clipPath id="clip0_704_3359">
<rect width="79.8122" height="79.8122" fill="white" transform="translate(45.4922 45.4922)"/>
</clipPath>
</defs>
</svg>
