<svg width="106" height="106" viewBox="0 0 106 106" fill="none" xmlns="http://www.w3.org/2000/svg">
<g id="packet 1">
<rect id="Rectangle 480" x="8.83337" y="30.918" width="88.3333" height="61.8333" fill="#28BAE8"/>
<path id="Rectangle 481" d="M8.83337 30.918H97.1667L88.3334 13.2513H17.6667L8.83337 30.918Z" fill="#008DB9"/>
<path id="Rectangle 482" d="M44.1666 79.5L53 75.0833L61.8333 79.5V30.9167L59.625 13.25H46.375L44.1666 32.0208V79.5Z" fill="#FFC700"/>
<path id="Vector" d="M98.2708 30.8712C98.2708 30.8049 98.2487 30.7387 98.2266 30.6504C98.2045 30.5841 98.2045 30.4958 98.1604 30.4295V30.4074L89.327 12.7408C89.1283 12.3874 88.7529 12.1445 88.3333 12.1445H17.6666C17.247 12.1445 16.8716 12.3874 16.6729 12.7629L7.83954 30.4295V30.4516C7.81746 30.5179 7.79538 30.5841 7.77329 30.6724C7.75121 30.7387 7.72913 30.8049 7.72913 30.8933C7.72913 30.9154 7.72913 30.9154 7.72913 30.9375V50.8125V64.0625V92.7708C7.72913 93.3891 8.21496 93.8749 8.83329 93.8749H97.1666C97.785 93.8749 98.2708 93.3891 98.2708 92.7708V64.0404V50.7904V30.9154C98.2708 30.8933 98.2708 30.8933 98.2708 30.8712ZM87.6487 14.3529L95.3779 29.8112H62.827L61.2812 14.3529H87.6487ZM46.927 14.3529H59.0729L60.6187 29.8112H45.3812L46.927 14.3529ZM45.2708 32.0195H60.7291V77.71L53.4858 74.0883C53.3312 74 53.1545 73.9779 53 73.9779C52.8454 73.9779 52.6687 74.022 52.5141 74.0883L45.2708 77.71V32.0195ZM18.3512 14.3529H44.7187L43.1729 29.8112H10.622L18.3512 14.3529ZM9.93746 32.0195H43.0625V49.6862H9.93746V32.0195ZM9.93746 51.8945H43.0625V62.9362H9.93746V51.8945ZM96.0625 91.6445H9.93746V65.1445H43.0625V79.4987C43.0625 79.8741 43.2612 80.2275 43.5925 80.4483C43.9237 80.647 44.3212 80.6691 44.6745 80.4925L53 76.3187L61.3475 80.4925C61.502 80.5808 61.6787 80.6029 61.8333 80.6029C62.032 80.6029 62.2308 80.5587 62.4075 80.4483C62.7387 80.2495 62.9375 79.8962 62.9375 79.4987V65.1445H96.0625V91.6445ZM96.0625 62.9362H62.9375V51.8945H96.0625V62.9362ZM96.0625 49.6862H62.9375V32.0195H96.0625V49.6862Z" fill="black"/>
</g>
</svg>
