<svg width="86" height="85" viewBox="0 0 86 85" fill="none" xmlns="http://www.w3.org/2000/svg">
<path d="M85.0641 42.4818C85.0641 42.4453 85.0641 42.3906 85.0641 42.3541C85.0641 42.0624 85.0641 41.7707 85.0459 41.4972C85.0459 41.3331 85.0277 41.169 85.0277 40.9867C85.0277 40.8226 85.0094 40.6585 85.0094 40.4944C84.9912 40.2939 84.9912 40.0933 84.973 39.8927C84.973 39.7651 84.9547 39.6375 84.9547 39.5099C84.9365 39.2911 84.9183 39.0723 84.9 38.8535C84.9 38.7623 84.8818 38.6529 84.8818 38.5618C84.8636 38.3248 84.8271 38.0877 84.8089 37.8325C84.8089 37.7778 84.7906 37.7048 84.7906 37.6502C82.3839 16.464 64.4067 0 42.5824 0C20.758 0 2.78077 16.464 0.374074 37.6684C0.374074 37.7231 0.355841 37.796 0.355841 37.8507C0.337609 38.0877 0.301144 38.3248 0.282911 38.58C0.264679 38.6712 0.264679 38.7806 0.264679 38.8717C0.246446 39.0905 0.228214 39.3093 0.209981 39.5281C0.209981 39.6557 0.191749 39.7834 0.191749 39.911C0.173516 40.1115 0.173516 40.3121 0.155283 40.5127C0.155283 40.6768 0.137051 40.8408 0.137051 41.0049C0.137051 41.169 0.118819 41.3331 0.118819 41.5154C0.118819 41.8072 0.100586 42.0989 0.100586 42.3724C0.100586 42.4088 0.100586 42.4635 0.100586 42.5C0.100586 42.5 0.100586 42.5 0.100586 42.5182C0.100586 42.5365 0.100586 42.5182 0.100586 42.5365C0.100586 42.5729 0.100586 42.6276 0.100586 42.6641C0.100586 42.9558 0.100586 43.2475 0.118819 43.521C0.118819 43.6851 0.137051 43.8492 0.137051 44.0315C0.137051 44.1956 0.155283 44.3597 0.155283 44.5238C0.173516 44.7244 0.173516 44.9249 0.191749 45.1255C0.191749 45.2531 0.209981 45.3807 0.209981 45.5084C0.228214 45.7272 0.246446 45.9459 0.264679 46.1647C0.264679 46.2559 0.282911 46.3653 0.282911 46.4565C0.301144 46.6935 0.337609 46.9305 0.355841 47.1858C0.355841 47.2405 0.374074 47.3134 0.374074 47.3681C2.78077 68.536 20.758 85 42.5824 85C64.4067 85 82.3839 68.536 84.7906 47.3499C84.7906 47.2952 84.8089 47.2222 84.8089 47.1675C84.8271 46.9305 84.8636 46.6935 84.8818 46.4382C84.9 46.3471 84.9 46.2377 84.9 46.1465C84.9183 45.9277 84.9365 45.7089 84.9547 45.4901C84.9547 45.3625 84.973 45.2349 84.973 45.1073C84.9912 44.9067 84.9912 44.7061 85.0094 44.5056C85.0094 44.3415 85.0277 44.1774 85.0277 44.0133C85.0277 43.8492 85.0459 43.6851 85.0459 43.5028C85.0459 43.2111 85.0641 42.9193 85.0641 42.6459C85.0641 42.6094 85.0641 42.5547 85.0641 42.5182C85.0641 42.5 85.0641 42.5 85.0641 42.4818C85.0641 42.5 85.0641 42.5 85.0641 42.4818Z" fill="#F42020"/>
<path d="M28.3408 56.681L56.8018 28.2383" stroke="white" stroke-width="5.46976" stroke-miterlimit="10"/>
<path d="M56.8018 56.681L28.3408 28.2383" stroke="white" stroke-width="5.46976" stroke-miterlimit="10"/>
</svg>
