<svg width="14" height="15" viewBox="0 0 14 15" fill="none" xmlns="http://www.w3.org/2000/svg">
<path d="M9.47325 1.80533H4.52659C2.91659 1.80533 2.33325 2.38866 2.33325 4.02783V11.2495C2.33325 12.8887 2.91659 13.472 4.52659 13.472H9.46742C11.0833 13.472 11.6666 12.8887 11.6666 11.2495V4.02783C11.6666 2.38866 11.0833 1.80533 9.47325 1.80533ZM6.99992 11.897C6.43992 11.897 5.97909 11.4362 5.97909 10.8762C5.97909 10.3162 6.43992 9.85533 6.99992 9.85533C7.55992 9.85533 8.02075 10.3162 8.02075 10.8762C8.02075 11.4362 7.55992 11.897 6.99992 11.897ZM8.16659 4.28449H5.83325C5.59409 4.28449 5.39575 4.08616 5.39575 3.84699C5.39575 3.60783 5.59409 3.40949 5.83325 3.40949H8.16659C8.40575 3.40949 8.60409 3.60783 8.60409 3.84699C8.60409 4.08616 8.40575 4.28449 8.16659 4.28449Z" fill="#131313"/>
</svg>
