<svg width="105" height="105" viewBox="0 0 105 105" fill="none" xmlns="http://www.w3.org/2000/svg">
<path d="M95.1635 52.5817C95.1635 52.5452 95.1635 52.4904 95.1635 52.4538C95.1635 52.1614 95.1635 51.869 95.1452 51.5949C95.1452 51.4304 95.1269 51.2659 95.1269 51.0831C95.1269 50.9187 95.1086 50.7542 95.1086 50.5897C95.0904 50.3887 95.0904 50.1877 95.0721 49.9866C95.0721 49.8587 95.0538 49.7308 95.0538 49.6028C95.0355 49.3835 95.0173 49.1642 94.999 48.9449C94.999 48.8535 94.9807 48.7439 94.9807 48.6525C94.9624 48.4149 94.9259 48.1774 94.9076 47.9215C94.9076 47.8667 94.8893 47.7936 94.8893 47.7387C92.477 26.5027 74.4574 10 52.5817 10C30.7061 10 12.6865 26.5027 10.2741 47.757C10.2741 47.8118 10.2559 47.8849 10.2559 47.9398C10.2376 48.1774 10.201 48.4149 10.1828 48.6708C10.1645 48.7622 10.1645 48.8718 10.1645 48.9632C10.1462 49.1825 10.1279 49.4018 10.1097 49.6211C10.1097 49.749 10.0914 49.877 10.0914 50.0049C10.0731 50.2059 10.0731 50.407 10.0548 50.608C10.0548 50.7725 10.0366 50.9369 10.0366 51.1014C10.0366 51.2659 10.0183 51.4304 10.0183 51.6131C10.0183 51.9055 10 52.1979 10 52.4721C10 52.5086 10 52.5635 10 52.6C10 52.6 10 52.6 10 52.6183C10 52.6366 10 52.6183 10 52.6366C10 52.6731 10 52.7279 10 52.7645C10 53.0569 10 53.3493 10.0183 53.6234C10.0183 53.7879 10.0366 53.9524 10.0366 54.1351C10.0366 54.2996 10.0548 54.4641 10.0548 54.6286C10.0731 54.8296 10.0731 55.0306 10.0914 55.2317C10.0914 55.3596 10.1097 55.4875 10.1097 55.6155C10.1279 55.8348 10.1462 56.0541 10.1645 56.2734C10.1645 56.3647 10.1828 56.4744 10.1828 56.5658C10.201 56.8034 10.2376 57.0409 10.2559 57.2968C10.2559 57.3516 10.2741 57.4247 10.2741 57.4795C12.6865 78.6973 30.7061 95.2 52.5817 95.2C74.4574 95.2 92.477 78.6973 94.8893 57.4613C94.8893 57.4064 94.9076 57.3333 94.9076 57.2785C94.9259 57.0409 94.9624 56.8034 94.9807 56.5475C94.999 56.4561 94.999 56.3465 94.999 56.2551C95.0173 56.0358 95.0355 55.8165 95.0538 55.5972C95.0538 55.4692 95.0721 55.3413 95.0721 55.2134C95.0904 55.0124 95.0904 54.8113 95.1086 54.6103C95.1086 54.4458 95.1269 54.2813 95.1269 54.1169C95.1269 53.9524 95.1452 53.7879 95.1452 53.6052C95.1452 53.3127 95.1635 53.0203 95.1635 52.7462C95.1635 52.7097 95.1635 52.6548 95.1635 52.6183C95.1635 52.6 95.1635 52.6 95.1635 52.5817C95.1635 52.6 95.1635 52.6 95.1635 52.5817Z" fill="#2BB673"/>
<path d="M105 52.4775C105 52.4324 105 52.3649 105 52.3198C105 51.9595 105 51.5991 104.977 51.2613C104.977 51.0586 104.955 50.8559 104.955 50.6306C104.955 50.4279 104.932 50.2252 104.932 50.0225C104.91 49.7748 104.91 49.527 104.887 49.2793C104.887 49.1216 104.865 48.964 104.865 48.8063C104.842 48.536 104.82 48.2658 104.797 47.9955C104.797 47.8829 104.775 47.7477 104.775 47.6351C104.752 47.3423 104.707 47.0495 104.685 46.7342C104.685 46.6667 104.662 46.5766 104.662 46.509C101.688 20.3378 79.471 0 52.5 0C25.529 0 3.31223 20.3378 0.337983 46.5315C0.337983 46.5991 0.315451 46.6892 0.315451 46.7568C0.292918 47.0495 0.247854 47.3423 0.225322 47.6577C0.20279 47.7703 0.20279 47.9054 0.20279 48.018C0.180257 48.2883 0.157725 48.5586 0.135193 48.8288C0.135193 48.9865 0.112661 49.1441 0.112661 49.3018C0.0901288 49.5496 0.0901286 49.7973 0.0675964 50.045C0.0675964 50.2477 0.0450645 50.4505 0.0450645 50.6532C0.0450645 50.8559 0.0225323 51.0586 0.0225323 51.2838C0.0225323 51.6441 0 52.0045 0 52.3423C0 52.3874 0 52.455 0 52.5C0 52.5 0 52.5 0 52.5225C0 52.545 0 52.5225 0 52.545C0 52.5901 0 52.6577 0 52.7027C0 53.0631 8.56817e-08 53.4234 0.0225323 53.7613C0.0225323 53.964 0.0450645 54.1667 0.0450645 54.3919C0.0450645 54.5946 0.0675964 54.7973 0.0675964 55C0.0901286 55.2477 0.0901288 55.4955 0.112661 55.7432C0.112661 55.9009 0.135193 56.0586 0.135193 56.2162C0.157725 56.4865 0.180257 56.7568 0.20279 57.027C0.20279 57.1396 0.225322 57.2748 0.225322 57.3874C0.247854 57.6802 0.292918 57.973 0.315451 58.2883C0.315451 58.3559 0.337983 58.446 0.337983 58.5135C3.31223 84.6622 25.529 105 52.5 105C79.471 105 101.688 84.6622 104.662 58.491C104.662 58.4234 104.685 58.3333 104.685 58.2658C104.707 57.973 104.752 57.6802 104.775 57.3649C104.797 57.2523 104.797 57.1171 104.797 57.0045C104.82 56.7342 104.842 56.464 104.865 56.1937C104.865 56.036 104.887 55.8784 104.887 55.7207C104.91 55.473 104.91 55.2252 104.932 54.9775C104.932 54.7748 104.955 54.5721 104.955 54.3694C104.955 54.1667 104.977 53.964 104.977 53.7387C104.977 53.3784 105 53.018 105 52.6802C105 52.6351 105 52.5676 105 52.5225C105 52.5 105 52.5 105 52.4775C105 52.5 105 52.5 105 52.4775Z" fill="#2BB673" fill-opacity="0.1"/>
<path d="M43.7627 66.5097L72.2906 38" stroke="white" stroke-width="5.48263" stroke-miterlimit="10"/>
<path d="M47.4559 66.6922L33 52.2363" stroke="white" stroke-width="5.48263" stroke-miterlimit="10"/>
</svg>
