<svg width="122" height="121" viewBox="0 0 122 121" fill="none" xmlns="http://www.w3.org/2000/svg">
<g id="hand-tap 1">
<path id="Vector" d="M73.1821 21.5063C81.2069 15.8643 93.6635 16.6498 99.4712 24.109C102.487 27.9825 103.368 33.1172 103.638 38.0395C103.8 40.9809 103.662 42.4639 100.942 46.9957C97.7457 52.3218 89.0137 58.149 80.0509 56.0805C74.9145 54.8952 70.145 51.794 67.2406 47.3098C62.7376 40.3573 64.9516 27.293 73.1821 21.5063Z" fill="#F34B43"/>
<path id="Vector_2" d="M20.698 75.1507C23.0867 73.4035 22.7066 72.9648 25.0953 71.2177C25.9288 70.608 26.7856 69.9729 27.3038 69.0774C27.9644 67.9356 27.9828 66.538 27.9835 65.2098C27.987 58.7141 33.44 48.997 33.4435 42.5014C33.4457 38.5588 33.0415 34.5432 36.3317 32.4331C39.8278 30.191 42.6532 33.2117 44.0988 37.1622C46.4461 43.5767 43.192 50.0878 43.1718 56.829C49.7035 49.157 67.4426 35.5097 70.1496 33.979C72.6386 32.5717 78.1695 29.2737 80.7742 30.5299C82.7572 31.4863 83.8798 33.7992 83.8158 35.9926C83.7518 38.1861 74.5334 45.4609 72.7408 46.695C68.1599 49.8485 64.492 54.248 59.9111 57.4016C68.944 54.8142 71.3773 60.9615 65.8529 65.7783C74.7131 65.1839 76.6908 69.4854 72.4149 75.0092C80.4257 72.3071 85.0925 79.2429 76.9437 85.4263C69.4436 92.064 62.7852 98.6313 56.6208 99.0752C51.1126 99.472 51.0066 95.6672 41.8881 102.074L20.698 75.1507Z" fill="#F8DFB4"/>
<path id="Vector_3" d="M46.623 101.825C46.8229 102.162 30.0517 116.48 28.0983 117.362C25.3967 115.285 4.34608 85.6853 4.12329 85.8623C11.7293 79.5487 14.7738 75.8889 22.2025 69.3672C26.3901 73.7424 30.5861 78.1274 34.3072 82.9066C38.934 88.8489 42.7855 95.3472 46.623 101.825Z" fill="#BFD351"/>
<path id="Vector_4" d="M33.4923 99.1853C33.8189 99.3151 34.116 99.5138 34.3833 99.7436C35.346 100.571 35.9258 101.833 35.9147 103.095C35.9035 104.358 35.2989 105.596 34.3099 106.363C34.0094 106.596 33.6722 106.789 33.3038 106.887C31.2607 107.428 29.0391 105.31 28.3483 103.534C27.688 101.836 28.9962 100.491 30.3599 99.6821C31.282 99.135 32.4354 98.7651 33.4923 99.1853Z" fill="white"/>
<path id="Vector_5" d="M111.523 13.7979C105.896 6.57098 96.5801 2.42578 85.9654 2.42578C60.7498 2.42578 46.1584 24.5445 50.255 45.5013C50.4023 46.255 50.5812 46.9921 50.78 47.7184C48.5278 49.7016 46.3999 51.6692 44.634 53.4656C45.3589 47.9757 47.301 42.3911 45.2354 36.7477C43.2302 31.2649 39.332 29.0753 35.6783 31.415C31.9507 33.806 32.1936 38.1406 32.2338 42.5011C32.2327 45.5521 30.8773 49.578 29.5669 53.4703C24.5687 68.3272 28.5851 67.145 24.5678 70.0958C20.4792 65.8105 24.1013 67.7025 3.35337 84.9327C2.96107 85.2576 2.81454 85.7941 2.98824 86.2738C3.06268 86.4782 3.18676 86.6543 3.34628 86.7878C3.85439 87.3727 6.57926 91.0914 9.4601 95.0215C18.2243 106.977 25.619 116.983 27.3608 118.322C27.5758 118.488 27.8358 118.573 28.0981 118.573C28.2671 118.573 28.4361 118.537 28.5956 118.465C29.6567 117.987 47.2596 103.841 47.776 102.209C47.9869 101.543 47.6271 101.152 47.1539 100.353C51.5541 98.3599 51.9714 100.653 56.7068 100.282C62.6221 99.858 68.528 94.5736 75.3649 88.4563C76.9041 86.7883 83.9847 82.5726 82.1381 77.0877C81.2578 74.4704 78.4219 72.9473 74.9549 73.2368C75.3598 72.3949 75.584 71.5902 75.6939 70.8177C78.0597 71.5279 80.9214 71.8602 83.4615 71.8602C101.4 71.8602 117.256 56.6147 118.93 43.4984C119.58 38.3926 118.372 22.594 111.523 13.7979ZM28.2635 115.844C25.5977 112.943 16.8512 101.012 11.4429 93.6343C8.3907 89.4702 6.75294 87.2369 5.80174 86.0387C12.5144 80.3837 15.6171 76.8325 22.132 71.0449C25.9783 75.0672 29.9072 79.2253 33.3529 83.6506C37.758 89.3095 41.5145 95.5792 45.1315 101.682C42.5578 104.156 31.3949 113.651 28.2635 115.844ZM79.8445 77.8594C81.0695 81.4995 75.1596 85.0905 73.7508 86.6531C67.5153 92.2328 61.6248 97.503 56.5331 97.8693C52.5216 98.147 51.1885 95.7775 45.9103 98.2671C42.6469 92.7961 39.2315 87.2633 35.2624 82.1641C32.4566 78.5608 29.3614 75.1573 26.2518 71.8645C30.9406 68.335 27.142 68.258 31.8604 54.2431C35.6815 42.8853 34.4036 42.8341 34.6467 41.3124C34.6137 37.9199 34.5853 34.9907 36.9852 33.4521C37.5784 33.0716 38.1503 32.879 38.6844 32.879C40.5715 32.879 42.1313 35.3073 42.962 37.5796C44.3291 41.3124 43.6272 45.1551 42.884 49.2223C41.5983 56.2666 41.6587 57.5596 42.7528 57.9641C43.2302 58.1401 43.7631 58.0007 44.094 57.6143C50.5835 49.9904 68.1084 36.5232 70.7447 35.0332L71.1677 34.7933C72.9978 33.7531 78.3113 30.6936 80.2486 31.6206C81.6914 32.3166 82.6603 34.0997 82.6095 35.9194C82.1101 38.3817 70.878 46.2406 65.5088 51.1567C63.5118 52.9859 61.4463 54.8765 59.2249 56.4067C58.7368 56.7423 58.5643 57.3827 58.8172 57.9192C59.0712 58.4568 59.6727 58.7357 60.2446 58.5655C63.9136 57.5151 66.7968 58.0196 67.4349 59.7224C67.9631 61.1285 67.0296 63.148 65.0574 64.8673C64.6663 65.2087 64.5363 65.7618 64.7348 66.2415C64.9333 66.7212 65.393 67.0084 65.9342 66.9871C72.763 66.5157 75.5815 68.9424 71.4572 74.2696C71.1311 74.6914 71.1193 75.2775 71.4288 75.7124C71.7396 76.1472 72.3021 76.3315 72.8007 76.1567C76.1176 75.04 79.1615 75.8317 79.8445 77.8594ZM58.8207 36.2432C60.678 10.7901 92.4221 4.61835 104.295 19.868C108.617 25.4217 109.506 33.1225 109.798 38.4316C110.087 43.7277 107.888 49.1373 103.605 53.6618C95.0946 62.6537 81.0668 65.9732 69.2775 58.1507C68.6823 57.1677 67.7473 56.4405 66.5095 56.0247C66.0387 55.6004 65.5895 55.1644 65.1665 54.715C65.8301 54.1239 68.3572 51.8544 68.9675 51.3091C73.0697 55.4001 78.7615 57.716 83.8314 57.716C94.7045 57.716 105.404 48.0976 104.846 37.9707C104.62 33.8468 103.917 27.8465 100.426 23.3633C97.0799 19.0657 91.5546 16.6008 85.2659 16.6008C73.0402 16.6008 64.5201 25.3262 63.7993 37.0618C62.3311 38.1842 60.6956 39.4623 58.9696 40.8484C58.7949 39.2761 58.7128 37.721 58.8207 36.2432ZM79.3754 29.0411C76.387 29.0411 72.3706 31.3252 69.9707 32.69L69.5536 32.9275C69.0349 33.2205 67.9318 33.9849 66.4783 35.0515C68.159 24.9696 75.7049 19.0207 85.2659 19.0207C97.1551 19.0207 101.81 26.7668 102.43 38.103C103.144 51.1006 83.8608 62.4114 70.8537 49.6969C73.0389 47.8851 84.9235 39.5192 85.026 36.0292C85.1296 32.439 82.625 29.0411 79.3754 29.0411ZM116.529 43.1924C114.981 55.3302 100.199 69.4402 83.4615 69.4402C80.2558 69.4402 77.9911 68.9685 75.449 68.2729C74.4292 65.58 71.4606 64.7176 68.5941 64.5482C69.3315 63.4875 69.7585 62.3919 69.9106 61.3276C73.8363 63.4966 78.7234 65.0599 83.5147 65.0599C91.3065 65.0599 99.6784 61.3306 105.363 55.3255C110.108 50.313 112.541 44.2665 112.213 38.2993C111.905 32.6652 110.944 24.4705 106.205 18.3815C93.0712 1.51453 58.4426 8.18453 56.4067 36.0671C56.2526 38.1776 56.3495 40.4148 56.7215 42.6758C55.4336 43.7327 54.1328 44.8216 52.8463 45.9235C52.7803 45.6341 52.6835 45.3101 52.6302 45.037C48.6892 24.8774 62.8702 4.84583 85.9655 4.84583C95.8286 4.84583 104.449 8.65072 109.614 15.2845C115.934 23.4035 117.122 38.5391 116.529 43.1924Z" fill="#353535"/>
<path id="Vector_6" d="M29.7417 98.6395C27.4045 100.028 26.4615 102.02 27.2213 103.971C28.0248 106.04 30.27 108.181 32.6344 108.181C32.9677 108.181 33.2961 108.139 33.6105 108.055C34.1056 107.925 34.5912 107.677 35.0509 107.317C36.3353 106.321 37.1105 104.747 37.1246 103.105C37.1388 101.486 36.4086 99.8862 35.1714 98.8239C34.7779 98.4859 34.3631 98.2283 33.9401 98.0605C32.6888 97.5595 31.2153 97.7675 29.7417 98.6395ZM33.5951 100.66C34.2875 101.255 34.7117 102.183 34.7047 103.084C34.6976 103.978 34.2615 104.868 33.5656 105.407C33.3635 105.565 33.1721 105.668 32.9936 105.715C31.7624 106.052 30.0147 104.482 29.4759 103.094C29.0895 102.099 30.0785 101.254 30.9778 100.722C31.5379 100.388 32.0708 100.212 32.5198 100.212C32.7113 100.212 32.8826 100.244 33.0445 100.308C33.2193 100.378 33.4037 100.496 33.5951 100.66Z" fill="#353535"/>
</g>
</svg>
