<svg width="16" height="16" viewBox="0 0 16 16" fill="none" xmlns="http://www.w3.org/2000/svg">
<path d="M6.87827 16H6.78606C6.70642 15.9792 6.62678 15.9583 6.54715 15.9375C5.85975 15.7584 5.33581 15.1127 5.36515 14.3754C5.38611 13.9089 5.36515 13.4382 5.36515 12.9716C5.36515 12.9716 5.36515 12.9716 5.36096 12.9675C5.29809 12.9633 5.23103 12.955 5.16815 12.955C3.90652 12.955 2.64489 12.955 1.38325 12.955C1.26589 12.955 1.14853 12.9508 1.03117 12.9383C0.452747 12.8716 0.00426008 12.3218 0.00426008 11.7636C0.00845155 9.08513 0.00426008 6.40666 0.00426008 3.72403C0.00426008 2.90341 0.0084513 2.07862 6.83557e-05 1.25801C-0.00412312 0.808122 0.184492 0.462379 0.553342 0.220775C0.700043 0.124967 0.880277 0.0791453 1.04794 0.0083304C1.0647 0.0083304 1.09404 0.00416558 1.11081 0C1.16111 0.00833116 1.2114 0.0333241 1.2617 0.0333241C2.63231 0.0333241 4.00292 0.0333241 5.36934 0.0333241C5.81783 0.0333241 6.26632 0.0333239 6.719 0.0291583C7.13815 0.104139 7.44412 0.333246 7.63274 0.716479C7.83812 1.14137 7.80459 1.60791 7.88003 2.0578C7.92614 2.33273 7.9471 2.61182 7.98063 2.89091C8.01835 3.19917 8.06027 3.50742 8.09799 3.81567C8.12314 4.01979 8.1441 4.21973 8.16925 4.42385C8.20697 4.71544 8.24888 5.00703 8.28661 5.29862C8.32433 5.58604 8.34948 5.87764 8.3872 6.16506C8.42493 6.45665 8.47103 6.74824 8.50875 7.03983C8.54648 7.32726 8.57163 7.61885 8.60516 7.90627C8.64288 8.21869 8.68899 8.53111 8.7309 8.84353C8.75605 9.03515 8.77701 9.22676 8.80216 9.41838C8.83988 9.71414 8.8818 10.0141 8.91952 10.3098C8.94467 10.5139 8.96562 10.7139 8.99077 10.918C9.0285 11.2096 9.07041 11.5012 9.10814 11.7928C9.13748 12.026 9.17939 12.2551 9.20035 12.4884C9.21711 12.6634 9.23388 12.8383 9.05365 12.9758C8.83569 13.1466 8.63869 13.3549 8.4375 13.5506C8.06865 13.9047 7.70399 14.2588 7.33514 14.6129C7.25131 14.692 7.16329 14.7628 7.08365 14.842C6.88665 15.0378 6.68966 15.2377 6.47589 15.4543C6.61421 15.4793 6.72319 15.521 6.82798 15.521C9.26741 15.5251 11.711 15.5251 14.1505 15.521C14.8002 15.521 15.2989 15.0544 15.2989 14.3838C15.3073 11.0055 15.3031 7.62718 15.2989 4.24889C15.2989 3.87816 15.148 3.55324 14.8379 3.32413C14.6367 3.17834 14.3894 3.10336 14.1421 3.10336C12.6332 3.10336 11.1242 3.10336 9.6153 3.10336C9.27579 3.10336 8.93629 3.10752 8.59258 3.09919C8.54648 3.09919 8.46684 3.05337 8.45846 3.01588C8.42912 2.89924 8.42912 2.77844 8.41654 2.65348C8.46265 2.65348 8.49199 2.65348 8.52552 2.65348C10.3907 2.65348 12.2559 2.64931 14.1211 2.65348C14.5361 2.65348 14.9133 2.77844 15.2277 3.06587C15.6133 3.41161 15.76 3.85316 15.76 4.35303C15.76 7.55637 15.76 10.7555 15.76 13.9589C15.76 14.1463 15.7558 14.3338 15.739 14.5171C15.6887 15.0877 15.4079 15.521 14.8966 15.7834C14.7079 15.8792 14.4942 15.925 14.293 15.9958C14.2846 15.9958 14.272 16 14.2636 16C14.205 15.9917 14.1505 15.9667 14.0918 15.9667C11.732 15.9667 9.37639 15.9667 7.01659 15.9667C6.97049 15.9667 6.92438 15.9875 6.87827 16ZM6.60163 8.93934C6.84893 8.9435 6.95791 8.76438 6.87408 8.58526C6.55972 7.91044 6.24536 7.23145 5.931 6.55662C5.56215 5.76516 5.20168 4.9737 4.82445 4.18641C4.79092 4.11559 4.67775 4.05311 4.59392 4.04061C4.53524 4.03228 4.43464 4.10726 4.40111 4.17391C4.1622 4.65712 3.93586 5.14449 3.70952 5.63603C3.34067 6.42749 2.97601 7.22312 2.61136 8.01458C2.51914 8.21453 2.41855 8.41448 2.3431 8.62275C2.31795 8.69773 2.33472 8.8102 2.38082 8.87685C2.41016 8.92268 2.5401 8.956 2.58621 8.93101C2.67004 8.88102 2.74548 8.78938 2.79159 8.7019C2.98021 8.31867 3.16044 7.9271 3.33648 7.5397C3.38678 7.42723 3.45803 7.39807 3.64246 7.4314C4.29633 7.54387 4.96277 7.53137 5.61664 7.4314C5.7843 7.4064 5.83879 7.42307 5.8807 7.52721C6.07351 7.95626 6.27051 8.38115 6.4717 8.80604C6.50104 8.86436 6.57649 8.91434 6.60163 8.93934Z" fill="black"/>
<path d="M6.87842 16C6.92452 15.9917 6.97063 15.9708 7.02093 15.9708C9.38073 15.9708 11.7363 15.9708 14.0961 15.9708C14.1422 15.9708 14.1883 15.9917 14.2345 16C11.7824 16 9.33043 16 6.87842 16Z" fill="#999999"/>
<path d="M6.71915 0.00439453C6.71496 0.0127257 6.71496 0.0252229 6.72334 0.0335541C6.27485 0.0335541 5.82637 0.03772 5.37369 0.03772C4.00308 0.03772 2.63246 0.03772 1.26604 0.03772C1.21994 0.03772 1.17383 0.0168915 1.12354 0.00856037C2.98874 0.00439479 4.85395 0.00439453 6.71915 0.00439453Z" fill="#676767"/>
<path d="M6.60192 8.93934C6.57677 8.91435 6.50133 8.86853 6.47198 8.80188C6.27079 8.37699 6.0738 7.9521 5.88099 7.52304C5.83488 7.42307 5.78458 7.40224 5.61692 7.42724C4.96305 7.52721 4.29661 7.53971 3.64274 7.42724C3.45832 7.39391 3.38706 7.42307 3.33676 7.53554C3.16072 7.9271 2.98049 8.3145 2.79187 8.69774C2.74577 8.78938 2.67032 8.87686 2.58649 8.92685C2.54038 8.95184 2.41045 8.91851 2.38111 8.87269C2.33919 8.80604 2.31824 8.69357 2.34339 8.61859C2.41883 8.41031 2.51943 8.21036 2.61164 8.01042C2.9763 7.21896 3.34095 6.42333 3.7098 5.63187C3.93614 5.1445 4.16248 4.65296 4.4014 4.16975C4.43074 4.10727 4.53133 4.03229 4.59421 4.03645C4.67804 4.04478 4.79121 4.10727 4.82474 4.18225C5.20197 4.96954 5.56663 5.761 5.93128 6.55246C6.24564 7.22729 6.56 7.90628 6.87436 8.5811C6.95819 8.76439 6.84922 8.94351 6.60192 8.93934ZM5.59178 6.93153C5.27322 6.23171 4.95467 5.5319 4.61516 4.78626C4.26727 5.53606 3.94033 6.24004 3.60502 6.96069C4.27984 6.96069 4.93372 6.96069 5.58759 6.96069C5.59597 6.96069 5.60435 6.96069 5.61273 6.95653C5.60435 6.95236 5.60016 6.93986 5.59178 6.93153Z" fill="#FEFEFE"/>
<path d="M11.6496 8.96139C11.5282 8.85419 11.3989 8.75015 11.2807 8.63191C11.1656 8.51683 11.0978 8.37495 11.0726 8.21258C11.0379 7.99345 11.0947 7.79482 11.1766 7.59777C11.2381 7.45116 11.3264 7.32346 11.4431 7.21784C11.5897 7.08542 11.7552 7.00345 11.9617 7.00029C12.1808 6.99556 12.3795 7.04759 12.5482 7.18316C12.6475 7.26198 12.731 7.3613 12.8225 7.45273C12.8366 7.46692 12.8461 7.48269 12.8587 7.49687C12.8571 7.5016 12.8571 7.50476 12.8556 7.50791C12.8177 7.57727 12.7767 7.582 12.7011 7.5489C12.4725 7.44958 12.2266 7.44485 11.9854 7.46692C11.7946 7.48426 11.6117 7.5489 11.4604 7.68289C11.3516 7.77906 11.3501 7.88783 11.4037 8.01237C11.4573 8.13376 11.5471 8.22204 11.648 8.30244C11.771 8.40018 11.9018 8.48373 12.0453 8.54836C12.1225 8.58462 12.195 8.57674 12.266 8.54521C12.4567 8.46008 12.6443 8.36707 12.8351 8.2851C13.0242 8.20312 13.2181 8.12903 13.4105 8.05178C13.4294 8.0439 13.4499 8.04232 13.4719 8.03917C13.4247 8.211 13.3789 8.37653 13.3301 8.54048C13.3253 8.55782 13.3033 8.57831 13.2859 8.58462C13.122 8.65398 12.9533 8.71547 12.7909 8.78956C12.5545 8.89833 12.3164 9.00711 12.0878 9.13007C11.9428 9.20732 11.8009 9.30033 11.6732 9.40595C11.4793 9.56675 11.3138 9.75907 11.2775 10.0208C11.2476 10.2352 11.3106 10.4354 11.4383 10.6135C11.5786 10.809 11.7694 10.9446 11.9885 11.0328C12.143 11.0959 12.3038 11.1432 12.4662 11.1858C12.5623 11.211 12.6648 11.2157 12.7641 11.2236C12.8855 11.2346 13.0085 11.252 13.1314 11.2457C13.349 11.2346 13.5681 11.2126 13.7841 11.1873C13.8944 11.1747 14.0032 11.1495 14.112 11.129C14.1656 11.1195 14.153 11.1668 14.1687 11.1936C13.9402 11.3639 13.71 11.5357 13.4515 11.6618C13.36 11.706 13.2512 11.7281 13.1488 11.7407C13.0037 11.7596 12.8571 11.769 12.7121 11.7643C12.37 11.7564 12.0374 11.6918 11.7331 11.5278C11.4226 11.3623 11.1956 11.118 11.0789 10.7806C11.019 10.6056 10.9985 10.4243 11.0001 10.2383C11.0017 9.88519 11.1294 9.57936 11.3406 9.30663C11.4368 9.18525 11.5487 9.07332 11.6496 8.96139Z" fill="black"/>
<path d="M5.58706 6.96484C4.93319 6.96484 4.27932 6.96484 3.60449 6.96484C3.93981 6.24419 4.26675 5.54021 4.61464 4.79041C4.95415 5.53604 5.2727 6.23586 5.59125 6.93568C5.58706 6.94401 5.58706 6.95234 5.58706 6.96484Z" fill="#010101"/>
<path d="M5.5874 6.96486C5.5874 6.95236 5.5874 6.94403 5.59159 6.9357C5.59998 6.94403 5.60417 6.95236 5.61255 6.96486C5.60417 6.96069 5.59579 6.96069 5.5874 6.96486Z" fill="#242424"/>
</svg>
