<svg width="100" height="100" viewBox="0 0 100 100" fill="none" xmlns="http://www.w3.org/2000/svg">
<path d="M76.25 51.8945V46.7969C76.25 44.9805 74.7852 43.5156 72.9688 43.5156H67.5977C67.7344 43.1445 67.832 42.7344 67.832 42.3242V35.918C67.832 35.4883 67.7539 35.0977 67.5977 34.7266H72.9688C74.7852 34.7266 76.25 33.2617 76.25 31.4453V25.0391C76.25 24.6094 76.1719 24.2188 76.0156 23.8477H80.3125C82.1289 23.8477 83.5938 22.3828 83.5938 20.5664V14.1602C83.5938 12.3438 82.1289 10.8789 80.3125 10.8789H68.6719C68.8086 10.5078 68.9062 10.0977 68.9062 9.6875V3.28125C68.8867 1.46484 67.4219 0 65.625 0H15.332C13.5156 0 12.0508 1.46484 12.0508 3.28125V9.6875C12.0508 11.5039 13.5156 12.9688 15.332 12.9688H26.9727C26.8359 13.3398 26.7383 13.75 26.7383 14.1602V20.5664C26.7383 20.9961 26.8164 21.3867 26.9727 21.7578H22.6758C20.8594 21.7578 19.3945 23.2227 19.3945 25.0391V31.4453C19.3945 31.875 19.4727 32.2656 19.6289 32.6367H14.2578C12.4414 32.6367 10.9766 34.1016 10.9766 35.918V42.3242C10.9766 44.1406 12.4414 45.6055 14.2578 45.6055H19.6289C19.4922 45.9766 19.3945 46.3867 19.3945 46.7969V53.2031C19.3945 53.6328 19.4727 54.0234 19.6289 54.3945H12.8711C11.0547 54.3945 9.58984 55.8594 9.58984 57.6758V64.082C9.58984 64.5117 9.66797 64.9023 9.82422 65.2734H4.08203C2.26562 65.2734 0.800781 66.7383 0.800781 68.5547V74.9609C0.800781 76.7773 2.26562 78.2422 4.08203 78.2422H9.82422C9.6875 78.6133 9.58984 79.0234 9.58984 79.4336V85.8398C9.58984 87.6562 11.0547 89.1211 12.8711 89.1211H18.3789C18.2422 89.4922 18.1445 89.9023 18.1445 90.3125V96.7188C18.1445 98.5352 19.6094 100 21.4258 100H71.7188C72.0312 100 72.3047 99.9414 72.5977 99.8633C73.4375 99.9414 74.2773 100 75.1172 100C88.3984 100 99.1797 89.1992 99.1797 75.9375C99.1992 63.0273 89.0039 52.4805 76.25 51.8945ZM72.9688 45.6055C73.6328 45.6055 74.1602 46.1328 74.1602 46.7969V51.875C70.6641 52.0117 67.3438 52.9102 64.375 54.3945H22.6758C22.0117 54.3945 21.4844 53.8672 21.4844 53.2031V46.7969C21.4844 46.1328 22.0117 45.6055 22.6758 45.6055H72.9688ZM80.3125 12.9688C80.9766 12.9688 81.5039 13.4961 81.5039 14.1602V20.5664C81.5039 21.2305 80.9766 21.7578 80.3125 21.7578H30.0195C29.3555 21.7578 28.8281 21.2305 28.8281 20.5664V14.1602C28.8281 13.4961 29.3555 12.9688 30.0195 12.9688H80.3125ZM15.332 10.8789C14.668 10.8789 14.1406 10.3516 14.1406 9.6875V3.28125C14.1406 2.61719 14.668 2.08984 15.332 2.08984H65.625C66.2891 2.08984 66.8164 2.61719 66.8164 3.28125V9.6875C66.8164 10.3516 66.2891 10.8789 65.625 10.8789H15.332ZM21.4844 25.0391C21.4844 24.375 22.0117 23.8477 22.6758 23.8477H72.9688C73.6328 23.8477 74.1602 24.375 74.1602 25.0391V31.4453C74.1602 32.1094 73.6328 32.6367 72.9688 32.6367H22.6758C22.0117 32.6367 21.4844 32.1094 21.4844 31.4453V25.0391ZM14.2578 43.5156C13.5938 43.5156 13.0664 42.9883 13.0664 42.3242V35.918C13.0664 35.2539 13.5938 34.7266 14.2578 34.7266H64.5508C65.2148 34.7266 65.7422 35.2539 65.7422 35.918V42.3242C65.7422 42.9883 65.2148 43.5156 64.5508 43.5156H14.2578ZM11.6797 57.6758C11.6797 57.0117 12.207 56.4844 12.8711 56.4844H60.957C57.832 58.7695 55.2734 61.7773 53.5352 65.2734H12.8711C12.207 65.2734 11.6797 64.7461 11.6797 64.082V57.6758ZM4.08203 76.1523C3.41797 76.1523 2.89063 75.625 2.89063 74.9609V68.5547C2.89063 67.8906 3.41797 67.3633 4.08203 67.3633H52.6172C51.6016 70.0195 51.0352 72.9102 51.0352 75.9375C51.0352 76.0156 51.0352 76.0938 51.0352 76.1719H4.08203V76.1523ZM12.8711 87.0312C12.207 87.0312 11.6797 86.5039 11.6797 85.8398V79.4336C11.6797 78.7695 12.207 78.2422 12.8711 78.2422H51.1523C51.4453 81.3867 52.3633 84.3555 53.7695 87.0312H12.8711ZM21.4258 97.9102C20.7617 97.9102 20.2344 97.3828 20.2344 96.7188V90.3125C20.2344 89.6484 20.7617 89.1211 21.4258 89.1211H55C57.5195 92.9492 61.1133 96.0352 65.3516 97.9102H21.4258ZM75.1172 97.9102C62.9883 97.9102 53.125 88.0469 53.125 75.918C53.125 63.7891 62.9883 53.9258 75.1172 53.9258C87.2461 53.9258 97.1094 63.7891 97.1094 75.918C97.1094 88.0469 87.2461 97.9102 75.1172 97.9102Z" fill="black"/>
</svg>
