<svg width="79" height="81" viewBox="0 0 79 81" fill="none" xmlns="http://www.w3.org/2000/svg">
<path d="M60.349 41.9104V37.8418C60.349 36.3921 59.1799 35.223 57.7302 35.223H53.4434C53.5525 34.9268 53.6305 34.5994 53.6305 34.2721V29.1591C53.6305 28.8162 53.5681 28.5044 53.4434 28.2082H57.7302C59.1799 28.2082 60.349 27.0391 60.349 25.5894V20.4764C60.349 20.1335 60.2867 19.8217 60.162 19.5255H63.5914C65.0411 19.5255 66.2102 18.3564 66.2102 16.9067V11.7937C66.2102 10.344 65.0411 9.17488 63.5914 9.17488H54.3008C54.4099 8.87871 54.4878 8.55135 54.4878 8.224V3.11103C54.4722 1.66131 53.3031 0.492188 51.869 0.492188H11.7291C10.2793 0.492188 9.11022 1.66131 9.11022 3.11103V8.224C9.11022 9.67371 10.2793 10.8428 11.7291 10.8428H21.0197C20.9106 11.139 20.8326 11.4664 20.8326 11.7937V16.9067C20.8326 17.2496 20.895 17.5614 21.0197 17.8576H17.5903C16.1406 17.8576 14.9714 19.0267 14.9714 20.4764V25.5894C14.9714 25.9323 15.0338 26.2441 15.1585 26.5403H10.8717C9.42199 26.5403 8.25286 27.7094 8.25286 29.1591V34.2721C8.25286 35.7218 9.42199 36.8909 10.8717 36.8909H15.1585C15.0494 37.1871 14.9714 37.5145 14.9714 37.8418V42.9548C14.9714 43.2977 15.0338 43.6095 15.1585 43.9057H9.76493C8.31522 43.9057 7.14609 45.0748 7.14609 46.5245V51.6375C7.14609 51.9804 7.20845 52.2922 7.33315 52.5884H2.75019C1.30047 52.5884 0.131348 53.7575 0.131348 55.2072V60.3202C0.131348 61.7699 1.30047 62.939 2.75019 62.939H7.33315C7.22403 63.2352 7.14609 63.5625 7.14609 63.8899V69.0029C7.14609 70.4526 8.31522 71.6217 9.76493 71.6217H14.1608C14.0517 71.9179 13.9738 72.2452 13.9738 72.5726V77.6856C13.9738 79.1353 15.1429 80.3044 16.5926 80.3044H56.7325C56.982 80.3044 57.2002 80.2576 57.434 80.1953C58.1043 80.2576 58.7746 80.3044 59.4449 80.3044C70.045 80.3044 78.6497 71.6841 78.6497 61.0996C78.6653 50.7957 70.5282 42.378 60.349 41.9104ZM57.7302 36.8909C58.2602 36.8909 58.6811 37.3118 58.6811 37.8418V41.8948C55.8908 42.0039 53.2408 42.721 50.8713 43.9057H17.5903C17.0603 43.9057 16.6394 43.4848 16.6394 42.9548V37.8418C16.6394 37.3118 17.0603 36.8909 17.5903 36.8909H57.7302ZM63.5914 10.8428C64.1214 10.8428 64.5423 11.2637 64.5423 11.7937V16.9067C64.5423 17.4367 64.1214 17.8576 63.5914 17.8576H23.4515C22.9215 17.8576 22.5006 17.4367 22.5006 16.9067V11.7937C22.5006 11.2637 22.9215 10.8428 23.4515 10.8428H63.5914ZM11.7291 9.17488C11.1991 9.17488 10.7782 8.754 10.7782 8.224V3.11103C10.7782 2.58102 11.1991 2.16014 11.7291 2.16014H51.869C52.399 2.16014 52.8199 2.58102 52.8199 3.11103V8.224C52.8199 8.754 52.399 9.17488 51.869 9.17488H11.7291ZM16.6394 20.4764C16.6394 19.9464 17.0603 19.5255 17.5903 19.5255H57.7302C58.2602 19.5255 58.6811 19.9464 58.6811 20.4764V25.5894C58.6811 26.1194 58.2602 26.5403 57.7302 26.5403H17.5903C17.0603 26.5403 16.6394 26.1194 16.6394 25.5894V20.4764ZM10.8717 35.223C10.3417 35.223 9.92081 34.8021 9.92081 34.2721V29.1591C9.92081 28.6291 10.3417 28.2082 10.8717 28.2082H51.0116C51.5416 28.2082 51.9625 28.6291 51.9625 29.1591V34.2721C51.9625 34.8021 51.5416 35.223 51.0116 35.223H10.8717ZM8.81404 46.5245C8.81404 45.9945 9.23493 45.5736 9.76493 45.5736H48.1434C45.6493 47.3974 43.6072 49.7981 42.2198 52.5884H9.76493C9.23493 52.5884 8.81404 52.1675 8.81404 51.6375V46.5245ZM2.75019 61.2711C2.22018 61.2711 1.7993 60.8502 1.7993 60.3202V55.2072C1.7993 54.6772 2.22018 54.2563 2.75019 54.2563H41.4872C40.6766 56.3763 40.2245 58.6834 40.2245 61.0996C40.2245 61.1619 40.2245 61.2243 40.2245 61.2866H2.75019V61.2711ZM9.76493 69.9538C9.23493 69.9538 8.81404 69.5329 8.81404 69.0029V63.8899C8.81404 63.3599 9.23493 62.939 9.76493 62.939H40.318C40.5519 65.4487 41.2845 67.8182 42.4069 69.9538H9.76493ZM16.5926 78.6364C16.0626 78.6364 15.6417 78.2156 15.6417 77.6856V72.5726C15.6417 72.0426 16.0626 71.6217 16.5926 71.6217H43.3889C45.3998 74.677 48.2681 77.14 51.6508 78.6364H16.5926ZM59.4449 78.6364C49.7646 78.6364 41.8925 70.7643 41.8925 61.084C41.8925 51.4036 49.7646 43.5315 59.4449 43.5315C69.1253 43.5315 76.9974 51.4036 76.9974 61.084C76.9974 70.7643 69.1253 78.6364 59.4449 78.6364Z" fill="black"/>
</svg>
