<svg width="24" height="26" viewBox="0 0 24 26" fill="none" xmlns="http://www.w3.org/2000/svg">
<path d="M3.25 25.25C2.5625 25.25 1.97396 25.0052 1.48438 24.5156C0.994792 24.026 0.75 23.4375 0.75 22.75V5.25C0.75 4.5625 0.994792 3.97396 1.48438 3.48438C1.97396 2.99479 2.5625 2.75 3.25 2.75H8.5C8.79167 2 9.25 1.39583 9.875 0.9375C10.5 0.479167 11.2083 0.25 12 0.25C12.7917 0.25 13.5 0.479167 14.125 0.9375C14.75 1.39583 15.2083 2 15.5 2.75H20.75C21.4375 2.75 22.026 2.99479 22.5156 3.48438C23.0052 3.97396 23.25 4.5625 23.25 5.25V22.75C23.25 23.4375 23.0052 24.026 22.5156 24.5156C22.026 25.0052 21.4375 25.25 20.75 25.25H3.25ZM12 4.3125C12.2708 4.3125 12.4948 4.22396 12.6719 4.04688C12.849 3.86979 12.9375 3.64583 12.9375 3.375C12.9375 3.10417 12.849 2.88021 12.6719 2.70312C12.4948 2.52604 12.2708 2.4375 12 2.4375C11.7292 2.4375 11.5052 2.52604 11.3281 2.70312C11.151 2.88021 11.0625 3.10417 11.0625 3.375C11.0625 3.64583 11.151 3.86979 11.3281 4.04688C11.5052 4.22396 11.7292 4.3125 12 4.3125ZM12 15.25C13.2083 15.25 14.2396 14.8229 15.0938 13.9688C15.9479 13.1146 16.375 12.0833 16.375 10.875C16.375 9.66667 15.9479 8.63542 15.0938 7.78125C14.2396 6.92708 13.2083 6.5 12 6.5C10.7917 6.5 9.76042 6.92708 8.90625 7.78125C8.05208 8.63542 7.625 9.66667 7.625 10.875C7.625 12.0833 8.05208 13.1146 8.90625 13.9688C9.76042 14.8229 10.7917 15.25 12 15.25ZM3.25 22.75H20.75V21.3125C19.625 20.2083 18.3177 19.3385 16.8281 18.7031C15.3385 18.0677 13.7292 17.75 12 17.75C10.2708 17.75 8.66146 18.0677 7.17188 18.7031C5.68229 19.3385 4.375 20.2083 3.25 21.3125V22.75Z" fill="black"/>
</svg>
