<svg width="43" height="43" viewBox="0 0 43 43" fill="none" xmlns="http://www.w3.org/2000/svg">
<path d="M16.7848 13.4395C15.8129 13.4395 15.0493 14.2204 15.0493 15.1749C15.0493 16.1294 15.8303 16.9104 16.7848 16.9104C17.7393 16.9104 18.5202 16.1294 18.5202 15.1749C18.5202 14.2204 17.7393 13.4395 16.7848 13.4395Z" fill="#292D32"/>
<path d="M38.1481 9.18792C36.6903 5.80377 33.4797 3.91211 29.0022 3.91211H14.459C8.88819 3.91211 4.37598 8.42432 4.37598 13.9952V28.5384C4.37598 33.0159 6.26763 36.2265 9.65179 37.6843C9.98153 37.8231 10.3633 37.7363 10.6063 37.4934L37.9572 10.1424C38.2175 9.88211 38.3043 9.50031 38.1481 9.18792ZM19.1795 21.6833C18.5027 22.3427 17.6176 22.6551 16.7325 22.6551C15.8474 22.6551 14.9623 22.3254 14.2855 21.6833C12.5153 20.0172 10.5716 17.362 11.3178 14.2034C11.9773 11.3399 14.5111 10.0557 16.7325 10.0557C18.9539 10.0557 21.4877 11.3399 22.1471 14.2208C22.876 17.362 20.9323 20.0172 19.1795 21.6833Z" fill="#292D32"/>
<path d="M34.695 36.07C35.0768 36.4518 35.0247 37.0765 34.5561 37.3368C33.0289 38.1872 31.172 38.6211 29.0027 38.6211H14.4595C13.9562 38.6211 13.7479 38.031 14.095 37.6839L24.5772 27.2017C24.9243 26.8546 25.4623 26.8546 25.8094 27.2017L34.695 36.07Z" fill="#292D32"/>
<path d="M39.0857 13.9951V28.5383C39.0857 30.7076 38.6518 32.5819 37.8015 34.0918C37.5411 34.5604 36.9164 34.5951 36.5346 34.2306L27.649 25.345C27.3019 24.998 27.3019 24.46 27.649 24.1129L38.1312 13.6307C38.4956 13.2836 39.0857 13.4918 39.0857 13.9951Z" fill="#292D32"/>
</svg>
