<svg width="42" height="43" viewBox="0 0 42 43" fill="none" xmlns="http://www.w3.org/2000/svg">
<path d="M20.8436 4.38672C16.2966 4.38672 12.6001 8.08326 12.6001 12.6302C12.6001 17.0903 16.0884 20.7001 20.6353 20.8563C20.7741 20.8389 20.913 20.8389 21.0171 20.8563C21.0518 20.8563 21.0692 20.8563 21.1039 20.8563C21.1212 20.8563 21.1212 20.8563 21.1386 20.8563C25.5814 20.7001 29.0697 17.0903 29.087 12.6302C29.087 8.08326 25.3905 4.38672 20.8436 4.38672Z" fill="#292D32"/>
<path d="M29.6598 25.4737C24.8179 22.2457 16.9215 22.2457 12.0448 25.4737C9.8408 26.9489 8.62598 28.9446 8.62598 31.0793C8.62598 33.2139 9.8408 35.1923 12.0275 36.6501C14.4571 38.2814 17.6504 39.0971 20.8436 39.0971C24.0369 39.0971 27.2302 38.2814 29.6598 36.6501C31.8465 35.175 33.0613 33.1965 33.0613 31.0446C33.044 28.9099 31.8465 26.9315 29.6598 25.4737Z" fill="#292D32"/>
</svg>
