<svg width="43" height="42" viewBox="0 0 43 42" fill="none" xmlns="http://www.w3.org/2000/svg">
<path d="M35.9791 13.6215L22.6161 21.3616C22.0781 21.674 21.4012 21.674 20.8459 21.3616L7.48281 13.6215C6.52831 13.0661 6.28534 11.7645 7.01424 10.9488C7.51752 10.3761 8.09023 9.90756 8.69764 9.57782L18.1039 4.37143C20.117 3.24338 23.3797 3.24338 25.3928 4.37143L34.799 9.57782C35.4064 9.90756 35.9792 10.3935 36.4824 10.9488C37.1766 11.7645 36.9337 13.0661 35.9791 13.6215Z" fill="#292D32"/>
<path d="M20.7417 24.5903V36.4261C20.7417 37.7451 19.4054 38.6128 18.2252 38.0401C14.6502 36.2873 8.62812 33.0073 8.62812 33.0073C6.51086 31.8098 4.77539 28.7901 4.77539 26.3084V17.3534C4.77539 15.9824 6.21583 15.1146 7.39594 15.7915L19.8739 23.0284C20.3946 23.3581 20.7417 23.9482 20.7417 24.5903Z" fill="#292D32"/>
<path d="M22.7202 24.5903V36.4261C22.7202 37.7451 24.0565 38.6128 25.2366 38.0401C28.8117 36.2873 34.8338 33.0073 34.8338 33.0073C36.951 31.8098 38.6865 28.7901 38.6865 26.3084V17.3534C38.6865 15.9824 37.2461 15.1146 36.0659 15.7915L23.5879 23.0284C23.0673 23.3581 22.7202 23.9482 22.7202 24.5903Z" fill="#292D32"/>
</svg>
