<svg width="43" height="42" viewBox="0 0 43 42" fill="none" xmlns="http://www.w3.org/2000/svg">
<path d="M31.0977 14.6054C30.9763 14.5881 30.8548 14.5881 30.7333 14.6054C28.0433 14.5187 25.9087 12.3146 25.9087 9.60729C25.9087 6.8479 28.1474 4.5918 30.9242 4.5918C33.6836 4.5918 35.9397 6.83055 35.9397 9.60729C35.9223 12.3146 33.7877 14.5187 31.0977 14.6054Z" fill="#292D32"/>
<path d="M36.755 26.6321C34.8113 27.9337 32.0866 28.4196 29.5702 28.0899C30.2296 26.6668 30.5767 25.0875 30.5941 23.4215C30.5941 21.686 30.2123 20.0373 29.4834 18.5969C32.0519 18.2498 34.7766 18.7357 36.7376 20.0373C39.4797 21.8422 39.4797 24.8099 36.755 26.6321Z" fill="#292D32"/>
<path d="M11.851 14.6054C11.9724 14.5881 12.0939 14.5881 12.2154 14.6054C14.9054 14.5187 17.04 12.3146 17.04 9.60729C17.04 6.83055 14.8012 4.5918 12.0245 4.5918C9.26512 4.5918 7.02637 6.83055 7.02637 9.60729C7.02637 12.3146 9.16099 14.5187 11.851 14.6054Z" fill="#292D32"/>
<path d="M12.0423 23.4218C12.0423 25.1052 12.4067 26.7019 13.0662 28.1423C10.6192 28.4026 8.06804 27.882 6.19373 26.6498C3.4517 24.8276 3.4517 21.8599 6.19373 20.0377C8.05068 18.7881 10.6712 18.2848 13.1356 18.5625C12.4241 20.0203 12.0423 21.669 12.0423 23.4218Z" fill="#292D32"/>
<path d="M21.7088 28.6629C21.57 28.6455 21.4138 28.6455 21.2576 28.6629C18.0643 28.5588 15.5132 25.9382 15.5132 22.7102C15.5305 19.4128 18.1858 16.7402 21.5005 16.7402C24.7979 16.7402 27.4705 19.4128 27.4705 22.7102C27.4532 25.9382 24.9194 28.5588 21.7088 28.6629Z" fill="#292D32"/>
<path d="M16.0684 32.2547C13.4479 34.0075 13.4479 36.8883 16.0684 38.6238C19.0534 40.6196 23.9475 40.6196 26.9325 38.6238C29.553 36.871 29.553 33.9901 26.9325 32.2547C23.9648 30.2589 19.0708 30.2589 16.0684 32.2547Z" fill="#292D32"/>
</svg>
