<svg width="175" height="34" viewBox="0 0 175 34" fill="none" xmlns="http://www.w3.org/2000/svg">
<g clip-path="url(#clip0_69_11498)">
<path d="M96.903 34H169.155C172.016 34 174.331 31.6822 174.331 28.8243V5.17567C174.331 2.31775 172.013 0 169.155 0H96.903C95.53 0 94.2141 0.544933 93.2432 1.51582L81.4189 13.3401C79.3962 15.3628 79.3962 18.6396 81.4189 20.6599L93.2432 32.4842C94.2141 33.4551 95.53 34 96.903 34Z" fill="#E30613"/>
<path d="M103.666 6.06805H97.4097V28.1938H103.944C110.421 28.1938 114.776 24.6386 114.776 17.0357C114.776 9.43283 110.421 6.06805 103.666 6.06805ZM103.361 24.1651H102.412V10.0944H103.361C107.114 10.0944 109.65 11.7434 109.65 17.0333C109.65 22.3232 107.114 24.1651 103.361 24.1651Z" fill="white"/>
<path d="M121.932 18.9013H129.475V14.7061H121.932V10.2633H130.793V6.06805H116.93V28.1938H131.131V23.9985H121.932V18.9013Z" fill="white"/>
<path d="M139.648 6.06805L132.699 28.1938H137.813L139.179 22.9229H145.925L147.286 28.1938H152.581L145.632 6.06805H139.648ZM140.188 19.0346L140.719 16.9881C141.332 14.7751 141.925 12.1884 142.46 9.85165H142.596C143.186 12.1599 143.779 14.7751 144.393 16.9881L144.921 19.0346H140.188Z" fill="white"/>
<path d="M159.713 23.9985V6.06805H154.711V28.1938H168.448V23.9985H159.713Z" fill="white"/>
<path d="M6.94849 6.06805L0 28.1938H5.1138L6.4797 22.9229H13.2259L14.5871 28.1938H19.8817L12.9332 6.06805H6.94849ZM7.48866 19.0346L8.01932 16.9881C8.63326 14.7751 9.22578 12.1884 9.7612 9.85165H9.89683C10.487 12.1599 11.0795 14.7751 11.6934 16.9881L12.2217 19.0346H7.48866Z" fill="white"/>
<path d="M38.5191 12.9571C38.5191 7.69571 34.6737 6.06805 29.9811 6.06805H22.0117V28.1938H27.0137V20.2315H29.7645L33.9883 28.1938H39.5852L34.5785 19.344C36.9414 18.2755 38.5168 16.21 38.5168 12.9571H38.5191ZM27.0137 10.0373H29.5718C32.2036 10.0373 33.6171 10.7678 33.6171 12.9571C33.6171 15.1463 32.2036 16.26 29.5718 16.26H27.0137V10.0396V10.0373Z" fill="white"/>
<path d="M46.6643 6.06805L39.7158 28.1938H44.8296L46.1979 22.9229H52.9441L54.3053 28.1938H59.5999L52.6514 6.06805H46.6667H46.6643ZM47.2045 19.0346L47.7351 16.9881C48.3491 14.7751 48.9416 12.1884 49.477 9.85165H49.6127C50.2028 12.1599 50.7953 14.7751 51.4093 16.9881L51.9375 19.0346H47.2045Z" fill="white"/>
<path d="M74.5442 16.467V16.3314C76.3503 15.6532 77.4592 13.5401 77.4592 11.5555C77.4592 7.32925 73.8922 6.06805 69.2995 6.06805H61.7275V28.1938H69.9325C74.7441 28.1938 78.5515 26.1782 78.5515 21.676C78.5515 18.7205 76.8072 17.0548 74.5465 16.4694L74.5442 16.467ZM66.7295 9.9278H69.1044C71.4364 9.9278 72.5691 10.5917 72.5691 12.2955C72.5691 13.9041 71.4959 14.9298 69.0687 14.9298H66.7295V9.9278ZM69.5232 24.334H66.7295V18.6205H69.5232C72.274 18.6205 73.659 19.4106 73.659 21.35C73.659 23.2894 72.2502 24.3316 69.5232 24.3316V24.334Z" fill="white"/>
</g>
<defs>
<clipPath id="clip0_69_11498">
<rect width="174.333" height="34" fill="white"/>
</clipPath>
</defs>
</svg>
