<svg width="69" height="68" viewBox="0 0 69 68" fill="none" xmlns="http://www.w3.org/2000/svg">
<rect x="0.450195" width="67.6227" height="68.0005" rx="33.8114" fill="#F5F5F5"/>
<g clip-path="url(#clip0_2858_17479)">
<path fill-rule="evenodd" clip-rule="evenodd" d="M13.9297 23.9062C13.9297 22.7128 14.4038 21.5682 15.2477 20.7243C16.0916 19.8804 17.2362 19.4062 18.4297 19.4062H51.4297C52.6232 19.4062 53.7678 19.8804 54.6117 20.7243C55.4556 21.5682 55.9297 22.7128 55.9297 23.9062V25.4062H13.9297V23.9062ZM13.9297 28.4062H55.9297V44.9062C55.9297 46.0997 55.4556 47.2443 54.6117 48.0882C53.7678 48.9321 52.6232 49.4062 51.4297 49.4062H18.4297C17.2362 49.4062 16.0916 48.9321 15.2477 48.0882C14.4038 47.2443 13.9297 46.0997 13.9297 44.9062V28.4062ZM37.9297 38.9062C37.5319 38.9062 37.1503 39.0643 36.869 39.3456C36.5877 39.6269 36.4297 40.0084 36.4297 40.4062C36.4297 40.8041 36.5877 41.1856 36.869 41.4669C37.1503 41.7482 37.5319 41.9062 37.9297 41.9062H46.9297C47.3275 41.9062 47.709 41.7482 47.9903 41.4669C48.2717 41.1856 48.4297 40.8041 48.4297 40.4062C48.4297 40.0084 48.2717 39.6269 47.9903 39.3456C47.709 39.0643 47.3275 38.9062 46.9297 38.9062H37.9297Z" fill="#292D32"/>
</g>
<defs>
<clipPath id="clip0_2858_17479">
<rect width="42.5769" height="42.8148" fill="white" transform="translate(13.4502 13)"/>
</clipPath>
</defs>
</svg>
