<svg width="39" height="39" viewBox="0 0 39 39" fill="none" xmlns="http://www.w3.org/2000/svg">
<circle cx="19.5" cy="19.5" r="19.5" fill="#E30613"/>
<g clip-path="url(#clip0_104_12409)">
<path d="M25.7187 21.7687C24.6693 21.7687 23.6541 21.5981 22.7072 21.291C22.4086 21.1886 22.0758 21.2654 21.8455 21.4957L20.5061 23.1764C18.0918 22.0247 15.831 19.8492 14.6281 17.3495L16.2917 15.9333C16.522 15.6945 16.5903 15.3618 16.4964 15.0632C16.1807 14.1162 16.0187 13.101 16.0187 12.0516C16.0187 11.5909 15.6348 11.207 15.1741 11.207H12.2223C11.7616 11.207 11.207 11.4118 11.207 12.0516C11.207 19.9772 17.8017 26.5633 25.7187 26.5633C26.3244 26.5633 26.5633 26.0258 26.5633 25.5566V22.6133C26.5633 22.1526 26.1794 21.7687 25.7187 21.7687Z" fill="white"/>
</g>
<defs>
<clipPath id="clip0_104_12409">
<rect width="20.475" height="20.475" fill="white" transform="translate(9.05322 9.05176)"/>
</clipPath>
</defs>
</svg>
