<svg width="68" height="68" viewBox="0 0 68 68" fill="none" xmlns="http://www.w3.org/2000/svg">
<rect x="0.0957031" width="67.6227" height="68.0005" rx="33.8114" fill="#F5F5F5"/>
<g clip-path="url(#clip0_2858_17460)">
<path d="M33.9032 16.1602C26.4523 16.1602 19.7109 21.9045 19.7109 30.7885C19.7109 36.7113 24.4476 43.7222 33.9032 51.8392C43.3589 43.7222 48.0956 36.7113 48.0956 30.7885C48.0956 21.9045 41.3542 16.1602 33.9032 16.1602ZM33.9032 33.9997C31.9518 33.9997 30.3552 32.3941 30.3552 30.4318C30.3552 28.4694 31.9518 26.8639 33.9032 26.8639C35.8547 26.8639 37.4513 28.4694 37.4513 30.4318C37.4513 32.3941 35.8547 33.9997 33.9032 33.9997Z" fill="#292D32"/>
</g>
<defs>
<clipPath id="clip0_2858_17460">
<rect width="42.5769" height="42.8148" fill="white" transform="translate(12.6162 12.5918)"/>
</clipPath>
</defs>
</svg>
