<svg width="165" height="32" viewBox="0 0 165 32" fill="none" xmlns="http://www.w3.org/2000/svg">
<g clip-path="url(#clip0_101_6802)">
<path d="M91.2028 32H159.205C161.897 32 164.076 29.8186 164.076 27.1288V4.87122C164.076 2.18141 161.895 0 159.205 0H91.2028C89.9105 0 88.672 0.512878 87.7582 1.42665L76.6294 12.5554C74.7257 14.4591 74.7257 17.5431 76.6294 19.4446L87.7582 30.5733C88.672 31.4871 89.9105 32 91.2028 32Z" fill="#E30613"/>
<path d="M97.5677 5.71109H91.6797V26.5353H97.8297C103.926 26.5353 108.025 23.1893 108.025 16.0336C108.025 8.87794 103.926 5.71109 97.5677 5.71109ZM97.281 22.7436H96.3874V9.50056H97.281C100.813 9.50056 103.2 11.0526 103.2 16.0314C103.2 21.0101 100.813 22.7436 97.281 22.7436Z" fill="white"/>
<path d="M114.759 17.7895H121.859V13.841H114.759V9.65958H123.099V5.71109H110.051V26.5353H123.417V22.5868H114.759V17.7895Z" fill="white"/>
<path d="M131.433 5.71109L124.894 26.5353H129.707L130.992 21.5745H137.341L138.623 26.5353H143.606L137.066 5.71109H131.433ZM131.942 17.9149L132.441 15.9888C133.019 13.9059 133.577 11.4714 134.081 9.27212H134.208C134.764 11.4446 135.321 13.9059 135.899 15.9888L136.396 17.9149H131.942Z" fill="white"/>
<path d="M150.318 22.5868V5.71109H145.61V26.5353H158.54V22.5868H150.318Z" fill="white"/>
<path d="M6.53975 5.71109L0 26.5353H4.81299L6.09854 21.5745H12.4479L13.729 26.5353H18.7122L12.1725 5.71109H6.53975ZM7.04815 17.9149L7.54759 15.9888C8.12542 13.9059 8.68309 11.4714 9.18701 9.27212H9.31467C9.8701 11.4446 10.4278 13.9059 11.0056 15.9888L11.5028 17.9149H7.04815Z" fill="black"/>
<path d="M36.2532 12.1949C36.2532 7.243 32.6339 5.71109 28.2174 5.71109H20.7168V26.5353H25.4245V19.0414H28.0135L31.9889 26.5353H37.2565L32.5443 18.2061C34.7683 17.2005 36.2509 15.2564 36.2509 12.1949H36.2532ZM25.4245 9.44681H27.8321C30.3092 9.44681 31.6395 10.1344 31.6395 12.1949C31.6395 14.2553 30.3092 15.3035 27.8321 15.3035H25.4245V9.44905V9.44681Z" fill="black"/>
<path d="M43.9192 5.71109L37.3794 26.5353H42.1924L43.4802 21.5745H49.8296L51.1106 26.5353H56.0938L49.5541 5.71109H43.9214H43.9192ZM44.4275 17.9149L44.927 15.9888C45.5048 13.9059 46.0625 11.4714 46.5664 9.27212H46.6941C47.2495 11.4446 47.8072 13.9059 48.385 15.9888L48.8822 17.9149H44.4275Z" fill="black"/>
<path d="M70.1589 15.4983V15.3707C71.8588 14.7324 72.9025 12.7436 72.9025 10.8757C72.9025 6.8981 69.5452 5.71109 65.2227 5.71109H58.0962V26.5353H65.8185C70.347 26.5353 73.9305 24.6383 73.9305 20.4009C73.9305 17.6193 72.2888 16.0515 70.1611 15.5006L70.1589 15.4983ZM62.8039 9.34379H65.0391C67.2339 9.34379 68.3 9.96865 68.3 11.5722C68.3 13.0862 67.2899 14.0515 65.0055 14.0515H62.8039V9.34379ZM65.4333 22.9026H62.8039V17.5252H65.4333C68.0223 17.5252 69.3258 18.2688 69.3258 20.0941C69.3258 21.9194 67.9999 22.9003 65.4333 22.9003V22.9026Z" fill="black"/>
</g>
<defs>
<clipPath id="clip0_101_6802">
<rect width="164.078" height="32" fill="white"/>
</clipPath>
</defs>
</svg>
