<svg width="20" height="20" viewBox="0 0 20 20" fill="none" xmlns="http://www.w3.org/2000/svg">
<path d="M17.7498 9.03334C18.0748 9.03334 18.3332 8.77501 18.3332 8.45001V7.67501C18.3332 4.25834 17.2915 3.21667 13.8748 3.21667H6.12484C2.70817 3.21667 1.6665 4.25834 1.6665 7.67501V8.06668C1.6665 8.39167 1.92484 8.65001 2.24984 8.65001C2.99984 8.65001 3.60817 9.25834 3.60817 10.0083C3.60817 10.7583 2.99984 11.3583 2.24984 11.3583C1.92484 11.3583 1.6665 11.6167 1.6665 11.9417V12.3333C1.6665 15.75 2.70817 16.7917 6.12484 16.7917H13.8748C17.2915 16.7917 18.3332 15.75 18.3332 12.3333C18.3332 12.0083 18.0748 11.75 17.7498 11.75C16.9998 11.75 16.3915 11.1417 16.3915 10.3917C16.3915 9.64167 16.9998 9.03334 17.7498 9.03334ZM7.49984 7.40001C7.95817 7.40001 8.33317 7.77501 8.33317 8.23334C8.33317 8.69168 7.9665 9.06668 7.49984 9.06668C7.0415 9.06668 6.6665 8.69168 6.6665 8.23334C6.6665 7.77501 7.03317 7.40001 7.49984 7.40001ZM12.4998 13.2333C12.0332 13.2333 11.6582 12.8583 11.6582 12.4C11.6582 11.9417 12.0332 11.5667 12.4915 11.5667C12.9498 11.5667 13.3248 11.9417 13.3248 12.4C13.3248 12.8583 12.9665 13.2333 12.4998 13.2333ZM13.2498 7.90001L7.6415 13.5083C7.5165 13.6333 7.35817 13.6917 7.19984 13.6917C7.0415 13.6917 6.88317 13.6333 6.75817 13.5083C6.5165 13.2667 6.5165 12.8667 6.75817 12.625L12.3665 7.01667C12.6082 6.77501 13.0082 6.77501 13.2498 7.01667C13.4915 7.25834 13.4915 7.65834 13.2498 7.90001Z" fill="#E30613"/>
</svg>
